<?xml version="1.0" encoding="UTF-8"?>
<svg version="1.1" xmlns="http://www.w3.org/2000/svg" width="1448" height="1086">
<path d="M0 0 C477.84 0 955.68 0 1448 0 C1448 358.38 1448 716.76 1448 1086 C970.16 1086 492.32 1086 0 1086 C0 727.62 0 369.24 0 0 Z " fill="#FDFDFD" transform="translate(0,0)"/>
<path d="M0 0 C8.72708011 -0.61995651 17.70256691 3.08440681 24.45703125 8.47265625 C32.0479928 15.83941219 35.08130385 26.27937193 35.29944801 36.62444305 C35.30625273 37.39089394 35.31305744 38.15734482 35.32006836 38.94702148 C35.33511099 39.78342918 35.35015362 40.61983688 35.36565208 41.48159027 C35.41378173 44.26890938 35.44889304 47.05624354 35.484375 49.84375 C35.51721812 51.85487914 35.55103228 53.86599262 35.58573914 55.87709045 C35.65917173 60.21275787 35.72741867 64.54846264 35.79156494 68.88427734 C35.96588649 80.61073292 36.17455579 92.33660643 36.3828125 104.0625 C36.40423058 105.28389553 36.42564865 106.50529106 36.44771576 107.76369858 C36.78411999 126.81673163 37.22786123 145.86524515 37.75 164.9140625 C37.78431311 166.17002165 37.81862621 167.4259808 37.85397911 168.71999931 C38.18901908 180.94503906 38.53385688 193.16977112 38.89144993 205.39417171 C39.02391675 209.95898158 39.15197044 214.52390972 39.27930641 219.08886528 C39.36550189 222.11977838 39.45788581 225.15045167 39.55070496 228.1811676 C40.09998297 247.90133534 39.95703125 267.52717889 39.95703125 287.28515625 C267.65703125 287.28515625 495.35703125 287.28515625 729.95703125 287.28515625 C730.28703125 272.43515625 730.61703125 257.58515625 730.95703125 242.28515625 C731.36613913 227.44107319 731.36613913 227.44107319 731.58790398 220.43335724 C731.6823424 217.444706 731.77399449 214.45597792 731.86512756 211.46722412 C731.99525851 207.20121386 732.12600439 202.93522338 732.25735474 198.66925049 C733.18695081 168.41840844 734.09880482 138.17288317 734.51953125 107.91015625 C734.78200668 89.93002776 735.10870664 71.95341002 735.65817261 53.97943115 C735.73125807 51.51383332 735.79813499 49.04804203 735.85818481 46.58209229 C735.94216138 43.19974046 736.04995546 39.81895197 736.1640625 36.4375 C736.18398254 35.45187576 736.20390259 34.46625153 736.22442627 33.45075989 C736.59828408 23.91352365 739.43927907 16.00471878 746.0390625 9.0390625 C753.19111237 2.49879693 761.02129765 -0.2423437 770.671875 0.0390625 C779.28723405 0.9668704 787.42202276 5.08354616 793.0078125 11.72265625 C797.74530713 18.31395313 800.21141212 23.59260434 800.53930664 31.76416016 C800.57603768 32.53756556 800.61276873 33.31097095 800.65061283 34.10781288 C801.16967668 45.90971592 801.36179508 57.72503619 801.59834933 69.53518629 C801.67087178 73.11348871 801.74749077 76.69170349 801.82374573 80.26992798 C802.01765331 89.39992921 802.20631021 98.53003631 802.39453125 107.66015625 C802.62427207 118.79957398 802.85588914 129.93894851 803.09314919 141.07820892 C803.12481052 142.56563902 803.1563898 144.05307087 803.18788719 145.54050446 C803.55898964 163.05376432 803.97418508 180.56474749 804.49609375 198.07421875 C804.51899416 198.84348167 804.54189457 199.61274458 804.56548893 200.4053185 C804.78613571 207.79394147 805.01189025 215.18238043 805.24879915 222.57050049 C805.93945593 244.15989138 806.12847539 265.68319506 805.95703125 287.28515625 C819.81703125 287.28515625 833.67703125 287.28515625 847.95703125 287.28515625 C847.95703125 287.94515625 847.95703125 288.60515625 847.95703125 289.28515625 C849.81328125 289.37796875 849.81328125 289.37796875 851.70703125 289.47265625 C865.75486919 291.12146352 878.18152474 300.05378206 887.078125 310.71484375 C893.55312002 319.57252925 898.06162642 328.38266237 899.95703125 339.28515625 C900.12888317 340.14147172 900.30073509 340.99778719 900.47779465 341.88005161 C901.07275753 346.10742251 901.10181067 350.22232356 901.09747314 354.48558044 C901.10192983 355.86171929 901.10192983 355.86171929 901.10647655 357.26565892 C901.11513758 360.33523698 901.11666962 363.40477593 901.11816406 366.47436523 C901.1227942 368.67748599 901.12781913 370.88060595 901.13320923 373.08372498 C901.14631941 379.06765677 901.15277591 385.05157736 901.15721989 391.03552127 C901.16015384 394.77817418 901.16425934 398.52082404 901.16872406 402.26347542 C901.18083168 412.64264361 901.19121323 423.02180966 901.19459915 433.40098476 C901.19481872 434.06468075 901.19503828 434.72837673 901.1952645 435.41218472 C901.19548278 436.07740247 901.19570106 436.74262023 901.19592595 437.4279961 C901.1963694 438.77580925 901.19681597 440.1236224 901.19726562 441.47143555 C901.19748705 442.13998682 901.19770848 442.80853809 901.19793662 443.49734849 C901.20187821 454.3118301 901.21931344 465.12624406 901.24262515 475.94069957 C901.26641138 487.06593457 901.27854705 498.19114152 901.27996707 509.31640297 C901.28101226 515.55374782 901.28685861 521.79099728 901.30478668 528.02831841 C901.32134301 533.90278769 901.32338628 539.77709069 901.31464767 545.65157509 C901.31388124 547.79804812 901.31816753 549.94453037 901.32810593 552.09098053 C901.39106138 566.54515521 901.43623068 581.3638524 894.45703125 594.47265625 C894.1130127 595.13209229 893.76899414 595.79152832 893.41455078 596.47094727 C884.97876724 611.85833787 871.34497102 621.26306028 855.1875 627.41015625 C848.24216088 629.29136056 841.14277239 629.43124294 833.984375 629.3828125 C833.17585587 629.38139755 832.36733673 629.3799826 831.53431702 629.37852478 C828.98768183 629.37299039 826.44113922 629.36045085 823.89453125 629.34765625 C822.15299607 629.34263275 820.4114595 629.33807134 818.66992188 629.33398438 C814.43225677 629.32304259 810.19465962 629.30582451 805.95703125 629.28515625 C805.97515869 630.01323486 805.99328613 630.74131348 806.01196289 631.49145508 C806.14737694 640.80407295 804.75672138 648.19476656 798.83203125 655.66015625 C790.10010557 664.2875635 781.45164374 664.93043201 769.69747925 664.95423889 C767.69805187 664.9419713 765.69863127 664.9285514 763.69921875 664.9140625 C761.62517167 664.91489227 759.55112466 664.91735574 757.4770813 664.92137146 C753.14483689 664.9242202 748.81311214 664.90961589 744.48095703 664.88208008 C738.94174258 664.84795656 733.40345401 664.85403875 727.86419487 664.87274265 C723.58664292 664.88333355 719.30930471 664.87435648 715.03177261 664.85935783 C712.98973348 664.85419381 710.94767188 664.85463609 708.90563583 664.86090279 C706.04842184 664.86638198 703.19251413 664.84589493 700.33544922 664.81860352 C699.50095245 664.82512939 698.66645569 664.83165527 697.80667114 664.83837891 C691.06473309 664.72943911 686.03448899 662.7198883 680.75 658.5390625 C675.10846884 652.59555157 672.65403976 648.50985669 671.95703125 640.28515625 C671.29703125 640.28515625 670.63703125 640.28515625 669.95703125 640.28515625 C669.95703125 636.65515625 669.95703125 633.02515625 669.95703125 629.28515625 C481.85703125 629.28515625 293.75703125 629.28515625 99.95703125 629.28515625 C99.95703125 633.90515625 99.95703125 638.52515625 99.95703125 643.28515625 C95.95735178 652.78439498 90.67199019 659.59425955 81.00463867 663.64198685 C77.29123443 664.80839598 73.59872828 664.70148196 69.73632812 664.67333984 C68.83946793 664.6785968 67.94260773 664.68385376 67.01856995 664.68927002 C64.07079356 664.70241222 61.12356259 664.6937524 58.17578125 664.68359375 C56.11747128 664.68561614 54.05916201 664.68852896 52.00085449 664.69229126 C47.69369666 664.69670679 43.38672588 664.69030832 39.07958984 664.67626953 C33.56835795 664.65917823 28.0575644 664.66902353 22.54634857 664.68698692 C18.29804197 664.69784553 14.0498387 664.69436886 9.80152893 664.68660355 C7.76982063 664.68460729 5.73810285 664.68704057 3.70640564 664.69404221 C0.86326369 664.70169082 -1.97917577 664.69000465 -4.82226562 664.67333984 C-5.65572006 664.67941254 -6.4891745 664.68548523 -7.34788513 664.69174194 C-15.4824194 664.60374724 -21.16253105 661.87810425 -27.1796875 656.38671875 C-32.72700335 650.12999773 -35.20347982 642.76808653 -35.10546875 634.53515625 C-35.09644531 633.5503125 -35.08742188 632.56546875 -35.078125 631.55078125 C-35.06652344 630.803125 -35.05492187 630.05546875 -35.04296875 629.28515625 C-36.67540527 629.3008667 -36.67540527 629.3008667 -38.34082031 629.31689453 C-42.43355941 629.35348475 -46.52628449 629.37619661 -50.61914062 629.39501953 C-52.38023318 629.40498919 -54.14130958 629.41856981 -55.90234375 629.43603516 C-77.45272435 629.64419224 -95.92270936 626.61529282 -112.20703125 611.2421875 C-113.94443385 609.32492164 -115.511723 607.369913 -117.04296875 605.28515625 C-117.82220703 604.25648438 -117.82220703 604.25648438 -118.6171875 603.20703125 C-130.44397018 586.64357743 -131.49275969 568.77232261 -131.44702148 549.20947266 C-131.45273251 546.99546465 -131.45969959 544.78145959 -131.46781921 542.56745911 C-131.48568493 536.58596472 -131.48459461 530.60461757 -131.47887683 524.62310457 C-131.47577536 519.6159191 -131.48188808 514.60876152 -131.48791558 509.60158002 C-131.50273764 497.10788635 -131.49916566 484.61426335 -131.48705227 472.12057476 C-131.47712384 461.30327031 -131.49006002 450.48613702 -131.51398646 439.66885896 C-131.53844631 428.525309 -131.54756995 417.38182783 -131.54133373 406.23825014 C-131.53797407 399.99652405 -131.54031329 393.75493931 -131.55758476 387.51323318 C-131.57312615 381.64107131 -131.5690187 375.76923455 -131.55027962 369.89708519 C-131.54661358 367.75222393 -131.54964365 365.6073382 -131.56016541 363.46249962 C-131.65152107 343.28679075 -128.70451262 322.6219028 -114.04296875 307.28515625 C-107.60834136 301.36977886 -100.73490433 296.42491325 -93.04296875 292.28515625 C-91.43421875 291.41890625 -91.43421875 291.41890625 -89.79296875 290.53515625 C-77.8211694 286.54455647 -65.12343753 287.03177433 -52.66796875 287.16015625 C-50.94922403 287.17021688 -49.23047353 287.17933722 -47.51171875 287.1875 C-43.35532273 287.20924463 -39.19921196 287.24360021 -35.04296875 287.28515625 C-35.04820557 286.50769043 -35.05344238 285.73022461 -35.05883789 284.92919922 C-35.17371127 264.66786077 -34.96916929 244.41843209 -34.60546875 224.16015625 C-34.58582062 223.00320251 -34.56617249 221.84624878 -34.54592896 220.65423584 C-34.48774549 217.27851802 -34.42439181 213.90293622 -34.359375 210.52734375 C-34.34265747 209.54483643 -34.32593994 208.5623291 -34.30871582 207.55004883 C-34.19288622 201.92704846 -33.92547528 196.33557797 -33.55224609 190.72363281 C-32.85536848 179.77326921 -32.77000071 168.81025245 -32.62797737 157.84136581 C-32.57689507 153.93324649 -32.52029933 150.02523997 -32.46226501 146.11721802 C-32.30818635 135.70937763 -32.16051267 125.30145088 -32.02124822 114.89340138 C-31.27104584 58.85901817 -31.27104584 58.85901817 -30.2265625 40.73046875 C-30.16888199 39.59777557 -30.11120148 38.4650824 -30.05177307 37.29806519 C-29.39090723 27.7884235 -27.76122536 16.82149544 -20.8046875 9.77734375 C-14.237739 4.21509469 -8.47414402 1.18281551 0 0 Z " fill="#455267" transform="translate(339.04296875,210.71484375)"/>
<path d="M0 0 C1.20752345 -0.00551949 2.41504689 -0.01103897 3.65916196 -0.01672572 C4.99836546 -0.01275006 6.33756843 -0.00859114 7.67677087 -0.00426924 C9.10591701 -0.00696213 10.53506173 -0.01052968 11.96420375 -0.01489371 C15.90904952 -0.02437561 19.85380325 -0.02134336 23.79865363 -0.01633817 C28.08372101 -0.01307913 32.3687684 -0.02134773 36.65382946 -0.02815652 C44.16988016 -0.03847883 51.68590509 -0.04129645 59.20196217 -0.03924429 C70.37854922 -0.0362001 81.55510765 -0.04450535 92.73168914 -0.05499355 C113.8523682 -0.07435897 134.97303757 -0.07996271 156.09372447 -0.08110766 C172.40074871 -0.0820259 188.70776914 -0.08613814 205.01479214 -0.09250891 C209.70465699 -0.09430393 214.39452185 -0.09608356 219.08438671 -0.09785867 C220.25022016 -0.09830076 221.41605361 -0.09874286 222.61721534 -0.09919835 C255.42031318 -0.11151075 288.22340969 -0.11939907 321.02650994 -0.1185118 C322.26384929 -0.11848064 323.50118864 -0.11844948 324.77602312 -0.11841738 C331.04772049 -0.11825116 337.31941785 -0.11805308 343.59111521 -0.11784796 C345.45956964 -0.11778813 345.45956964 -0.11778813 347.36577062 -0.11772708 C349.88475163 -0.11764621 352.40373264 -0.11756261 354.92271366 -0.1174763 C394.12221213 -0.11625053 433.32167602 -0.13126709 472.5211646 -0.15862143 C516.53639671 -0.18932347 560.55160609 -0.20655507 604.56684959 -0.20469499 C609.25765751 -0.20454572 613.94846542 -0.20444831 618.63927335 -0.20438635 C619.79431526 -0.20436304 620.94935718 -0.20433974 622.13940036 -0.20431572 C640.75002836 -0.2042541 659.3606264 -0.21704132 677.97124548 -0.23425088 C696.66592944 -0.25118099 715.36056944 -0.2532018 734.05525682 -0.24003224 C745.16923958 -0.23262562 756.28308903 -0.23635201 767.39705774 -0.25591692 C774.8153613 -0.26787546 782.23356784 -0.26537202 789.65186686 -0.25097592 C793.88228717 -0.24317791 798.11244867 -0.24176118 802.3428512 -0.25789063 C806.19083448 -0.27243395 810.03834311 -0.26859338 813.88630516 -0.25004289 C815.92339533 -0.244972 817.96050543 -0.25954046 819.99754408 -0.27488846 C828.65428533 -0.20719233 834.14157477 0.80842959 840.77775639 6.69049966 C845.58761284 12.16839173 848.14044647 15.37299183 848.18165654 22.79221475 C848.190257 23.94448556 848.19885747 25.09675638 848.20771855 26.28394449 C848.21410847 28.18215951 848.21410847 28.18215951 848.22062749 30.11872232 C848.2285308 31.46415293 848.23679989 32.80958143 848.24540776 34.15500772 C848.27160811 38.575672 848.28693647 42.99634564 848.30119389 47.41706216 C848.30655497 48.94080871 848.31193248 50.4645552 848.31732625 51.98830163 C848.33895479 58.32951987 848.3576891 64.67073559 848.36894864 71.01198137 C848.3851717 80.08799726 848.41830933 89.16358395 848.47534949 98.23943806 C848.51411828 104.62684748 848.53358968 111.01414245 848.5388692 117.4016664 C848.5425141 121.2133354 848.5544419 125.02454642 848.58697194 128.83608758 C848.61717442 132.42643954 848.62332188 136.01605939 848.61158818 139.60651147 C848.61126424 141.54070547 848.63565038 143.4748551 848.66096562 145.40888345 C848.5959002 154.5540406 846.73164289 160.54911316 840.21525639 167.06549966 C831.52700637 173.02802419 825.54509048 173.83060642 815.09327191 173.75357091 C813.66975788 173.75744318 812.24624773 173.76306813 810.82274669 173.77028051 C806.90741341 173.78502979 802.99248004 173.77486949 799.07715933 173.76066852 C794.81894545 173.74962468 790.56078755 173.76177394 786.30257803 173.77097601 C778.83825515 173.78389122 771.37405093 173.78190872 763.90972775 173.77019632 C752.81003104 173.75282726 741.71042781 173.75830806 730.61072628 173.76836323 C710.7874788 173.78556782 690.96428657 173.78000624 671.14104022 173.76500604 C653.79231401 173.75196267 636.44360697 173.74675667 619.09487599 173.7493242 C617.36979648 173.74956483 617.36979648 173.74956483 615.60986687 173.74981031 C610.94159657 173.75047388 606.27332628 173.75117629 601.60505599 173.75193565 C557.79621914 173.75896263 513.98741607 173.74345891 470.17858782 173.71731219 C431.24711517 173.69419955 392.31567967 173.68880751 353.38420171 173.69904459 C343.4166044 173.70164654 333.44900709 173.70423154 323.48140973 173.70664251 C322.25432693 173.70693996 321.02724412 173.7072374 319.76297699 173.70754386 C287.24520466 173.71515722 254.72743538 173.70874788 222.2096644 173.69794649 C218.71102307 173.69679867 215.21238173 173.69565549 211.71374039 173.69451966 C209.39277311 173.69376441 207.07180584 173.69299877 204.75083858 173.69222266 C187.41333811 173.68656159 170.07584726 173.68789616 152.73834676 173.69245088 C133.02540554 173.697556 113.31250032 173.69171779 93.59956808 173.67155658 C82.56377924 173.66056053 71.52806113 173.65778605 60.49227011 173.66684512 C53.1236339 173.6720583 45.75505829 173.66638308 38.38643481 173.65179177 C34.18611443 173.64377522 29.98593716 173.64048686 25.78561749 173.65036433 C21.96266717 173.65925217 18.13999189 173.65428741 14.31706659 173.6383849 C12.29818569 173.63351947 10.27928559 173.64330748 8.26042575 173.65373352 C-0.04041067 173.60052194 -7.55081592 172.90585627 -14.78474361 168.56549966 C-17.7435872 165.4375793 -19.8835974 162.00523425 -21.97224361 158.25299966 C-22.31955059 157.66691021 -22.66685758 157.08082077 -23.02468902 156.47697103 C-24.19163489 153.73807425 -24.23238402 151.64538136 -24.24639827 148.66945779 C-24.2563734 147.53264062 -24.26634853 146.39582345 -24.27662593 145.22455728 C-24.2772906 143.98137735 -24.27795528 142.73819742 -24.27864009 141.45734537 C-24.28696361 140.1447323 -24.29528713 138.83211923 -24.30386287 137.47973001 C-24.3257983 133.88029526 -24.33460596 130.28094548 -24.33968931 126.68145144 C-24.34333535 124.43001891 -24.34957683 122.17860854 -24.3566907 119.92718446 C-24.38118612 112.06483235 -24.39423638 104.20254618 -24.39778072 96.34015787 C-24.40141158 89.02488696 -24.4312741 81.71003675 -24.4731853 74.3948943 C-24.50795127 68.10511391 -24.52333028 61.81547244 -24.52402675 55.52559668 C-24.52481772 51.77320668 -24.53347145 48.0212449 -24.56202441 44.26895463 C-24.58831252 40.73519156 -24.59035166 37.2022083 -24.57436877 33.66839159 C-24.57170623 31.76523924 -24.59366703 29.86210137 -24.61656123 27.95908487 C-24.54264892 19.24646583 -22.68817968 13.46861654 -16.90974361 6.91315591 C-16.27036861 6.38592935 -15.63099361 5.85870279 -14.97224361 5.31549966 C-14.33286861 4.77022623 -13.69349361 4.22495279 -13.03474361 3.66315591 C-8.7874722 0.75924497 -5.10161647 0.00285811 0 0 Z " fill="#DEF1FD" transform="translate(311.9722436070442,582.747000336647)"/>
<path d="M0 0 C8.72708011 -0.61995651 17.70256691 3.08440681 24.45703125 8.47265625 C32.0479928 15.83941219 35.08130385 26.27937193 35.29944801 36.62444305 C35.30625273 37.39089394 35.31305744 38.15734482 35.32006836 38.94702148 C35.33511099 39.78342918 35.35015362 40.61983688 35.36565208 41.48159027 C35.41378173 44.26890938 35.44889304 47.05624354 35.484375 49.84375 C35.51721812 51.85487914 35.55103228 53.86599262 35.58573914 55.87709045 C35.65917173 60.21275787 35.72741867 64.54846264 35.79156494 68.88427734 C35.96588649 80.61073292 36.17455579 92.33660643 36.3828125 104.0625 C36.40423058 105.28389553 36.42564865 106.50529106 36.44771576 107.76369858 C36.78411999 126.81673163 37.22786123 145.86524515 37.75 164.9140625 C37.78431311 166.17002165 37.81862621 167.4259808 37.85397911 168.71999931 C38.18901908 180.94503906 38.53385688 193.16977112 38.89144993 205.39417171 C39.02391675 209.95898158 39.15197044 214.52390972 39.27930641 219.08886528 C39.36550189 222.11977838 39.45788581 225.15045167 39.55070496 228.1811676 C40.09998297 247.90133534 39.95703125 267.52717889 39.95703125 287.28515625 C267.65703125 287.28515625 495.35703125 287.28515625 729.95703125 287.28515625 C730.28703125 272.43515625 730.61703125 257.58515625 730.95703125 242.28515625 C731.36613913 227.44107319 731.36613913 227.44107319 731.58790398 220.43335724 C731.6823424 217.444706 731.77399449 214.45597792 731.86512756 211.46722412 C731.99525851 207.20121386 732.12600439 202.93522338 732.25735474 198.66925049 C733.18695081 168.41840844 734.09880482 138.17288317 734.51953125 107.91015625 C734.78200668 89.93002776 735.10870664 71.95341002 735.65817261 53.97943115 C735.73125807 51.51383332 735.79813499 49.04804203 735.85818481 46.58209229 C735.94216138 43.19974046 736.04995546 39.81895197 736.1640625 36.4375 C736.18398254 35.45187576 736.20390259 34.46625153 736.22442627 33.45075989 C736.59828408 23.91352365 739.43927907 16.00471878 746.0390625 9.0390625 C753.19111237 2.49879693 761.02129765 -0.2423437 770.671875 0.0390625 C779.28723405 0.9668704 787.42202276 5.08354616 793.0078125 11.72265625 C797.74530713 18.31395313 800.21141212 23.59260434 800.53930664 31.76416016 C800.57603768 32.53756556 800.61276873 33.31097095 800.65061283 34.10781288 C801.16967668 45.90971592 801.36179508 57.72503619 801.59834933 69.53518629 C801.67087178 73.11348871 801.74749077 76.69170349 801.82374573 80.26992798 C802.01765331 89.39992921 802.20631021 98.53003631 802.39453125 107.66015625 C802.62427207 118.79957398 802.85588914 129.93894851 803.09314919 141.07820892 C803.12481052 142.56563902 803.1563898 144.05307087 803.18788719 145.54050446 C803.55898964 163.05376432 803.97418508 180.56474749 804.49609375 198.07421875 C804.51899416 198.84348167 804.54189457 199.61274458 804.56548893 200.4053185 C804.78613571 207.79394147 805.01189025 215.18238043 805.24879915 222.57050049 C805.93945593 244.15989138 806.12847539 265.68319506 805.95703125 287.28515625 C819.81703125 287.28515625 833.67703125 287.28515625 847.95703125 287.28515625 C847.95703125 287.94515625 847.95703125 288.60515625 847.95703125 289.28515625 C849.81328125 289.37796875 849.81328125 289.37796875 851.70703125 289.47265625 C865.75486919 291.12146352 878.18152474 300.05378206 887.078125 310.71484375 C893.55312002 319.57252925 898.06162642 328.38266237 899.95703125 339.28515625 C900.12888317 340.14147172 900.30073509 340.99778719 900.47779465 341.88005161 C901.07275753 346.10742251 901.10181067 350.22232356 901.09747314 354.48558044 C901.10192983 355.86171929 901.10192983 355.86171929 901.10647655 357.26565892 C901.11513758 360.33523698 901.11666962 363.40477593 901.11816406 366.47436523 C901.1227942 368.67748599 901.12781913 370.88060595 901.13320923 373.08372498 C901.14631941 379.06765677 901.15277591 385.05157736 901.15721989 391.03552127 C901.16015384 394.77817418 901.16425934 398.52082404 901.16872406 402.26347542 C901.18083168 412.64264361 901.19121323 423.02180966 901.19459915 433.40098476 C901.19481872 434.06468075 901.19503828 434.72837673 901.1952645 435.41218472 C901.19548278 436.07740247 901.19570106 436.74262023 901.19592595 437.4279961 C901.1963694 438.77580925 901.19681597 440.1236224 901.19726562 441.47143555 C901.19748705 442.13998682 901.19770848 442.80853809 901.19793662 443.49734849 C901.20187821 454.3118301 901.21931344 465.12624406 901.24262515 475.94069957 C901.26641138 487.06593457 901.27854705 498.19114152 901.27996707 509.31640297 C901.28101226 515.55374782 901.28685861 521.79099728 901.30478668 528.02831841 C901.32134301 533.90278769 901.32338628 539.77709069 901.31464767 545.65157509 C901.31388124 547.79804812 901.31816753 549.94453037 901.32810593 552.09098053 C901.39106138 566.54515521 901.43623068 581.3638524 894.45703125 594.47265625 C894.1130127 595.13209229 893.76899414 595.79152832 893.41455078 596.47094727 C884.97876724 611.85833787 871.34497102 621.26306028 855.1875 627.41015625 C848.24216088 629.29136056 841.14277239 629.43124294 833.984375 629.3828125 C833.17585587 629.38139755 832.36733673 629.3799826 831.53431702 629.37852478 C828.98768183 629.37299039 826.44113922 629.36045085 823.89453125 629.34765625 C822.15299607 629.34263275 820.4114595 629.33807134 818.66992188 629.33398438 C814.43225677 629.32304259 810.19465962 629.30582451 805.95703125 629.28515625 C805.97515869 630.01323486 805.99328613 630.74131348 806.01196289 631.49145508 C806.14737694 640.80407295 804.75672138 648.19476656 798.83203125 655.66015625 C790.10010557 664.2875635 781.45164374 664.93043201 769.69747925 664.95423889 C767.69805187 664.9419713 765.69863127 664.9285514 763.69921875 664.9140625 C761.62517167 664.91489227 759.55112466 664.91735574 757.4770813 664.92137146 C753.14483689 664.9242202 748.81311214 664.90961589 744.48095703 664.88208008 C738.94174258 664.84795656 733.40345401 664.85403875 727.86419487 664.87274265 C723.58664292 664.88333355 719.30930471 664.87435648 715.03177261 664.85935783 C712.98973348 664.85419381 710.94767188 664.85463609 708.90563583 664.86090279 C706.04842184 664.86638198 703.19251413 664.84589493 700.33544922 664.81860352 C699.50095245 664.82512939 698.66645569 664.83165527 697.80667114 664.83837891 C691.06473309 664.72943911 686.03448899 662.7198883 680.75 658.5390625 C675.10846884 652.59555157 672.65403976 648.50985669 671.95703125 640.28515625 C671.29703125 640.28515625 670.63703125 640.28515625 669.95703125 640.28515625 C669.95703125 636.65515625 669.95703125 633.02515625 669.95703125 629.28515625 C481.85703125 629.28515625 293.75703125 629.28515625 99.95703125 629.28515625 C99.95703125 633.90515625 99.95703125 638.52515625 99.95703125 643.28515625 C95.95735178 652.78439498 90.67199019 659.59425955 81.00463867 663.64198685 C77.29123443 664.80839598 73.59872828 664.70148196 69.73632812 664.67333984 C68.83946793 664.6785968 67.94260773 664.68385376 67.01856995 664.68927002 C64.07079356 664.70241222 61.12356259 664.6937524 58.17578125 664.68359375 C56.11747128 664.68561614 54.05916201 664.68852896 52.00085449 664.69229126 C47.69369666 664.69670679 43.38672588 664.69030832 39.07958984 664.67626953 C33.56835795 664.65917823 28.0575644 664.66902353 22.54634857 664.68698692 C18.29804197 664.69784553 14.0498387 664.69436886 9.80152893 664.68660355 C7.76982063 664.68460729 5.73810285 664.68704057 3.70640564 664.69404221 C0.86326369 664.70169082 -1.97917577 664.69000465 -4.82226562 664.67333984 C-5.65572006 664.67941254 -6.4891745 664.68548523 -7.34788513 664.69174194 C-15.4824194 664.60374724 -21.16253105 661.87810425 -27.1796875 656.38671875 C-32.72700335 650.12999773 -35.20347982 642.76808653 -35.10546875 634.53515625 C-35.09644531 633.5503125 -35.08742188 632.56546875 -35.078125 631.55078125 C-35.06652344 630.803125 -35.05492187 630.05546875 -35.04296875 629.28515625 C-36.67540527 629.3008667 -36.67540527 629.3008667 -38.34082031 629.31689453 C-42.43355941 629.35348475 -46.52628449 629.37619661 -50.61914062 629.39501953 C-52.38023318 629.40498919 -54.14130958 629.41856981 -55.90234375 629.43603516 C-77.45272435 629.64419224 -95.92270936 626.61529282 -112.20703125 611.2421875 C-113.94443385 609.32492164 -115.511723 607.369913 -117.04296875 605.28515625 C-117.82220703 604.25648438 -117.82220703 604.25648438 -118.6171875 603.20703125 C-130.44397018 586.64357743 -131.49275969 568.77232261 -131.44702148 549.20947266 C-131.45273251 546.99546465 -131.45969959 544.78145959 -131.46781921 542.56745911 C-131.48568493 536.58596472 -131.48459461 530.60461757 -131.47887683 524.62310457 C-131.47577536 519.6159191 -131.48188808 514.60876152 -131.48791558 509.60158002 C-131.50273764 497.10788635 -131.49916566 484.61426335 -131.48705227 472.12057476 C-131.47712384 461.30327031 -131.49006002 450.48613702 -131.51398646 439.66885896 C-131.53844631 428.525309 -131.54756995 417.38182783 -131.54133373 406.23825014 C-131.53797407 399.99652405 -131.54031329 393.75493931 -131.55758476 387.51323318 C-131.57312615 381.64107131 -131.5690187 375.76923455 -131.55027962 369.89708519 C-131.54661358 367.75222393 -131.54964365 365.6073382 -131.56016541 363.46249962 C-131.65152107 343.28679075 -128.70451262 322.6219028 -114.04296875 307.28515625 C-107.60834136 301.36977886 -100.73490433 296.42491325 -93.04296875 292.28515625 C-91.43421875 291.41890625 -91.43421875 291.41890625 -89.79296875 290.53515625 C-77.8211694 286.54455647 -65.12343753 287.03177433 -52.66796875 287.16015625 C-50.94922403 287.17021688 -49.23047353 287.17933722 -47.51171875 287.1875 C-43.35532273 287.20924463 -39.19921196 287.24360021 -35.04296875 287.28515625 C-35.04820557 286.50769043 -35.05344238 285.73022461 -35.05883789 284.92919922 C-35.17371127 264.66786077 -34.96916929 244.41843209 -34.60546875 224.16015625 C-34.58582062 223.00320251 -34.56617249 221.84624878 -34.54592896 220.65423584 C-34.48774549 217.27851802 -34.42439181 213.90293622 -34.359375 210.52734375 C-34.34265747 209.54483643 -34.32593994 208.5623291 -34.30871582 207.55004883 C-34.19288622 201.92704846 -33.92547528 196.33557797 -33.55224609 190.72363281 C-32.85536848 179.77326921 -32.77000071 168.81025245 -32.62797737 157.84136581 C-32.57689507 153.93324649 -32.52029933 150.02523997 -32.46226501 146.11721802 C-32.30818635 135.70937763 -32.16051267 125.30145088 -32.02124822 114.89340138 C-31.27104584 58.85901817 -31.27104584 58.85901817 -30.2265625 40.73046875 C-30.16888199 39.59777557 -30.11120148 38.4650824 -30.05177307 37.29806519 C-29.39090723 27.7884235 -27.76122536 16.82149544 -20.8046875 9.77734375 C-14.237739 4.21509469 -8.47414402 1.18281551 0 0 Z M-95.85546875 326.03515625 C-101.02747882 332.39318281 -105.15919298 339.96466901 -105.17439651 348.29735088 C-105.17823766 349.09049558 -105.1820788 349.88364028 -105.18603635 350.70081967 C-105.18516987 351.56627449 -105.18430338 352.43172931 -105.18341064 353.32341003 C-105.18638177 354.24744403 -105.18935289 355.17147802 -105.19241405 356.12351304 C-105.20110195 359.22712654 -105.20260938 362.33070147 -105.20410156 365.43432617 C-105.2087297 367.65673912 -105.21375436 369.87915127 -105.21914673 372.1015625 C-105.23227387 378.14512532 -105.2387164 384.18867703 -105.24315739 390.23225188 C-105.24608784 394.00801414 -105.25019262 397.78377335 -105.25466156 401.55953407 C-105.26677078 412.0192699 -105.27715249 422.47900393 -105.28053665 432.93874645 C-105.28075622 433.60798966 -105.28097578 434.27723288 -105.281202 434.96675618 C-105.28142028 435.63757784 -105.28163856 436.3083995 -105.28186345 436.99954909 C-105.28230691 438.35883025 -105.28275348 439.71811142 -105.28320312 441.07739258 C-105.28342455 441.75163933 -105.28364598 442.42588608 -105.28387412 443.12056456 C-105.28781996 454.03945749 -105.30526774 464.9582836 -105.32856265 475.87715074 C-105.35230153 487.09495502 -105.36448192 498.31272697 -105.36590457 509.53056031 C-105.36695254 515.82587017 -105.37285862 522.12108579 -105.39072418 528.4163723 C-105.40720779 534.34004262 -105.40935884 540.26354789 -105.40058517 546.18723297 C-105.39981494 548.3588003 -105.40415571 550.53037651 -105.41404343 552.70192146 C-105.42677216 555.67213819 -105.42088083 558.64177118 -105.41046143 561.61198425 C-105.41851783 562.46628546 -105.42657423 563.32058668 -105.43487477 564.2007758 C-105.34916447 574.68633847 -101.34679866 584.74213401 -94.05078125 592.3671875 C-83.35926598 601.9492059 -73.65247198 603.73249884 -59.71015835 603.66267967 C-58.13395594 603.6658109 -56.5577557 603.670256 -54.98156026 603.67589277 C-50.64236518 603.68758729 -46.30337004 603.68057866 -41.96417817 603.67055891 C-37.24646797 603.66295748 -32.52878873 603.67272511 -27.8110829 603.68028891 C-19.54008783 603.69113423 -11.26915148 603.69078899 -2.99815369 603.68314743 C9.30090816 603.67181515 21.59992033 603.67759329 33.89898183 603.68677235 C55.86287196 603.70258384 77.82673595 603.70119476 99.79062858 603.69253561 C119.01073047 603.68499519 138.23082276 603.68301593 157.45092583 603.68660355 C159.3617357 603.68694728 159.3617357 603.68694728 161.31114779 603.68729796 C166.48193011 603.68823194 171.65271243 603.68918714 176.82349475 603.69017725 C212.91923557 603.69700664 249.01497154 603.69820551 285.1107111 603.68698692 C286.13131337 603.6866708 286.13131337 603.6866708 287.17253387 603.6863483 C298.22203474 603.68291339 309.27153553 603.67925503 320.32103632 603.67557777 C364.14803407 603.66100776 407.97500432 603.66168559 451.80200195 603.67626953 C462.84709959 603.67993305 473.89219724 603.68356618 484.93729496 603.68698692 C485.61736512 603.68719827 486.29743528 603.68740961 486.99811363 603.68762736 C523.70322821 603.69895606 560.40834009 603.69646156 597.11345571 603.68943274 C602.27462128 603.68847056 607.43578686 603.68753204 612.59695244 603.68660355 C613.86780692 603.68636631 615.13866139 603.68612908 616.44802661 603.68588466 C635.65908642 603.68246886 654.87013559 603.68646935 674.08119392 603.69404221 C695.91908568 603.70260751 717.75694714 603.70050213 739.59483511 603.68419997 C751.82435284 603.67537229 764.05380502 603.67484316 776.2833211 603.6861385 C784.44383035 603.69284596 792.60428685 603.68871475 800.76478826 603.67562419 C805.41985045 603.66846194 810.07478204 603.66610128 814.72984029 603.67684214 C818.96189333 603.68650778 823.19369949 603.68245277 827.42573441 603.66730016 C828.94982289 603.66427045 830.47393165 603.66629857 831.99800409 603.67391797 C842.37612935 603.82973115 842.37612935 603.82973115 851.95703125 600.28515625 C852.81167969 599.85976563 853.66632812 599.434375 854.546875 598.99609375 C864.57089884 593.29190714 871.68370488 585.47908944 874.95703125 574.28515625 C875.91832622 566.87842007 875.63099107 559.33453627 875.58813477 551.88232422 C875.59327828 549.60961347 875.60056282 547.33690671 875.6098175 545.06420898 C875.62828214 538.91554063 875.61542458 532.76730765 875.59572721 526.61865759 C875.5793028 520.17399969 875.5881587 513.72936853 875.59324646 507.28469849 C875.59776251 496.46592247 875.58203137 485.64734679 875.55395508 474.82861328 C875.52510812 463.71265472 875.51804263 452.59694277 875.53344727 441.48095703 C875.55202148 428.05955981 875.55025607 414.63836074 875.53123283 401.21695328 C875.52436966 396.09992551 875.52538726 390.98298943 875.53277779 385.86596298 C875.54045053 379.8395148 875.52828163 373.8134209 875.50092888 367.78703308 C875.49405505 365.57838619 875.49393628 363.36970615 875.50114441 361.16106033 C875.50986446 358.14066223 875.4938393 355.12135118 875.47169495 352.1010437 C875.47993571 351.23206259 875.48817648 350.36308147 875.49666697 349.4677676 C875.35728942 339.13169294 870.39538873 330.95066872 863.3671875 323.62890625 C856.01219212 316.84500463 847.54698661 313.16200153 837.59832513 313.15750575 C835.61916952 313.1529818 835.61916952 313.1529818 833.60003096 313.14836645 C832.12910773 313.15006552 830.6581846 313.15185627 829.18726158 313.15372849 C827.62345329 313.1520793 826.05964541 313.14999323 824.49583822 313.14750838 C820.17244184 313.14192616 815.8490652 313.14261698 811.52566635 313.14428597 C806.83193316 313.14501521 802.13820562 313.1399985 797.44447482 313.13571095 C788.12328557 313.12811883 778.80210204 313.12593728 769.48091002 313.1253819 C758.3208578 313.12446945 747.16081089 313.11780548 736.00076095 313.11103508 C709.02449352 313.09496051 682.04822665 313.08907021 655.07195529 313.08428633 C642.3153776 313.08195191 629.55880035 313.07834944 616.80222301 313.07459095 C573.83634498 313.06195558 530.87046707 313.051142 487.90458727 313.04775049 C485.85068401 313.04758825 483.79678076 313.04742269 481.74287751 313.04725611 C477.6236882 313.04692231 473.50449889 313.04659183 469.38530958 313.04626155 C464.56265928 313.04587465 459.74000898 313.04548504 454.91735868 313.04509048 C453.53707285 313.04497807 452.15678702 313.04486665 450.77650118 313.04475623 C406.4444297 313.04120663 362.11237441 313.02612789 317.78030911 313.00281849 C270.24334508 312.9778341 222.70639374 312.96343387 175.16942179 312.96222043 C170.02920381 312.96204897 164.88898583 312.96183354 159.74876785 312.961586 C158.48306224 312.96153023 157.21735664 312.96147446 155.91329631 312.961417 C135.52238339 312.96026516 115.13148721 312.94923187 94.74057994 312.93469894 C74.25453516 312.92035041 53.7685119 312.91708765 33.28246348 312.92513892 C21.10469436 312.9296029 8.92699458 312.92570389 -3.25076546 312.90990041 C-11.3807452 312.90017438 -19.5106762 312.90130588 -27.64065546 312.91133664 C-32.27589588 312.91674585 -36.91100287 312.91738367 -41.54623242 312.90482792 C-45.76385323 312.89349848 -49.98123189 312.8960029 -54.19884428 312.909495 C-55.71435711 312.91192868 -57.22988855 312.90934607 -58.7453809 312.90109852 C-72.99524479 312.82865271 -85.71836042 315.17396875 -95.85546875 326.03515625 Z " fill="#111A2D" transform="translate(339.04296875,210.71484375)"/>
<path d="M0 0 C2.01733169 1.05315811 4.06416924 2.00555646 6.13574219 2.94726562 C6.84537109 3.27275391 7.555 3.59824219 8.28613281 3.93359375 C9.72669717 4.59195122 11.16942612 5.24559244 12.61425781 5.89453125 C16.77871277 7.81571293 20.3887901 9.95618044 24.05493164 12.7043457 C26.06448221 14.1101986 28.13241982 15.25039513 30.29589844 16.40429688 C34.9652755 18.93972313 39.08308095 21.95786879 43.25683594 25.23242188 C44.35547974 26.08622437 44.35547974 26.08622437 45.47631836 26.95727539 C46.93852609 28.09719011 48.39815846 29.24041733 49.85498047 30.38720703 C51.65824682 31.80644846 53.47016217 33.21370038 55.28417969 34.61914062 C66.49999371 43.48640835 66.49999371 43.48640835 67.81933594 51.48242188 C68.15793972 56.66566446 66.77003255 59.64899708 63.50683594 63.68164062 C60.04391929 67.25277342 57.30735552 68.41740208 52.31933594 68.60742188 C45.16996027 68.54516316 40.65759896 63.89916708 35.50683594 59.41992188 C15.95768612 42.86355791 -6.7984662 30.5718409 -31.12426758 22.64575195 C-33.4713573 21.86492144 -35.75803177 20.96004721 -38.05566406 20.04492188 C-69.18281687 8.80814887 -104.1489984 10.57761944 -136.39282227 14.70703125 C-138.99050746 14.96952242 -141.50952012 15.03233102 -144.11816406 14.98242188 C-144.11816406 15.64242187 -144.11816406 16.30242187 -144.11816406 16.98242188 C-144.67576416 17.10246582 -145.23336426 17.22250977 -145.80786133 17.34619141 C-157.7512861 19.95448325 -168.95629564 22.91919183 -180.11816406 27.98242188 C-180.85244629 28.30726563 -181.58672852 28.63210938 -182.34326172 28.96679688 C-198.10748896 35.96876564 -212.38634186 44.53666172 -226.11816406 54.98242188 C-226.941875 55.60117187 -227.76558594 56.21992188 -228.61425781 56.85742188 C-231.93250352 59.38560908 -234.82497605 61.62751008 -237.49316406 64.85742188 C-241.61868859 68.1971322 -245.93007201 68.228409 -251.11816406 67.98242188 C-255.63919223 67.0967727 -259.43281389 64.68901863 -262.23535156 60.98632812 C-264.2066557 56.51164219 -263.78738514 51.72601832 -263.11816406 46.98242188 C-260.39855696 40.37766178 -253.62750584 36.25608725 -248.11816406 31.98242188 C-246.97348011 31.08417894 -245.82895205 30.18573731 -244.68457031 29.28710938 C-243.53816867 28.39293866 -242.39104708 27.4996901 -241.24316406 26.60742188 C-240.70828369 26.19073242 -240.17340332 25.77404297 -239.62231445 25.34472656 C-231.34535532 18.98242188 -231.34535532 18.98242188 -228.11816406 18.98242188 C-228.11816406 18.32242188 -228.11816406 17.66242188 -228.11816406 16.98242188 C-162.00399768 -22.18881217 -71.13353036 -37.46981807 0 0 Z " fill="#455166" transform="translate(822.1181640625,260.017578125)"/>
<path d="M0 0 C22.87728642 -0.9160113 46.50747025 2.25344966 67.38720703 12.10595703 C68.04591797 12.37923828 68.70462891 12.65251953 69.38330078 12.93408203 C85.10588854 19.47277638 102.20244307 29.13828075 112.38720703 43.10595703 C113.94138322 47.76848561 113.93169505 51.59349031 112.26220703 56.23095703 C109.5723721 60.35537059 106.99966774 63.33030841 102.24267578 64.74267578 C97.01981886 65.57014715 92.90116746 64.97306596 88.38720703 62.10595703 C86.27704644 60.51562723 84.22522278 58.86240895 82.16845703 57.20361328 C78.710998 54.59595106 75.11769694 52.27930071 71.44970703 49.98095703 C70.80590088 49.57353271 70.16209473 49.1661084 69.4987793 48.74633789 C60.88717759 43.40354634 52.4033348 39.45281234 42.57470703 36.91845703 C41.115448 36.53729736 41.115448 36.53729736 39.62670898 36.1484375 C5.45439704 27.39799979 -28.29185506 32.34332444 -58.71923828 49.95800781 C-64.21701965 53.2909846 -69.26731772 57.18629723 -74.23779297 61.25439453 C-78.29231722 64.41532297 -81.97657668 65.33853825 -87.05029297 65.10595703 C-92.18710683 64.37708479 -95.27089348 61.96854907 -98.61279297 58.10595703 C-101.20275049 54.22102074 -100.92910558 50.14383285 -100.31201172 45.64501953 C-97.18036649 34.27312344 -80.99187883 25.94227554 -71.40820312 20.38378906 C-57.72744301 12.6730527 -43.70763928 6.67042277 -28.30029297 3.41845703 C-27.28757324 3.20423096 -26.27485352 2.99000488 -25.23144531 2.76928711 C-16.74918594 1.03443371 -8.63583568 0.35021049 0 0 Z " fill="#455166" transform="translate(717.61279296875,317.89404296875)"/>
<path d="M0 0 C4.51119758 0.805571 5.71697782 2.01051933 8.5 5.625 C9.24546011 8.63723038 9.26705447 11.57646263 9.28125 14.66943359 C9.30473511 15.55089239 9.32822021 16.43235119 9.35241699 17.34052086 C9.39906826 19.18820232 9.43508833 21.03618018 9.4609375 22.88426971 C9.49775724 25.46764204 9.56287512 28.04825007 9.640625 30.63067627 C9.7638728 34.8341777 9.85992284 39.03772217 9.94555664 43.24214554 C10.00205586 46.0149581 10.06217995 48.78767434 10.12304688 51.56039429 C10.25183358 57.45686447 10.37607053 63.35342606 10.5 69.25 C10.66380379 77.01308388 10.82985377 84.7761149 11 92.5390625 C11.02045883 93.47583832 11.04091766 94.41261414 11.06199646 95.3777771 C11.32422421 107.26832211 11.6620932 119.14932539 12.15905762 131.03268433 C12.6318894 142.40721734 12.83929677 153.78563756 13.05224609 165.16748047 C13.24254688 175.16961983 13.49700932 185.15654118 13.99609375 195.1484375 C14.67505534 208.9248651 14.84893787 222.70998822 15.0625 236.5 C15.10582917 239.14583811 15.14944724 241.7916715 15.19335938 244.4375 C15.29942209 250.83328204 15.39959702 257.22911677 15.5 263.625 C5.6 263.625 -4.3 263.625 -14.5 263.625 C-14.5967498 245.82303668 -14.42764043 228.04760078 -14.0625 210.25 C-14.0330278 208.75231079 -14.0330278 208.75231079 -14.00296021 207.22436523 C-13.81598054 197.84865669 -13.60953965 188.4783749 -13.15136719 179.11152649 C-12.31062991 161.92324249 -12.07197232 144.7189546 -11.74468803 127.51498127 C-11.48017026 113.63678916 -11.18271262 99.75928422 -10.88694763 85.88172913 C-10.86471099 84.83787332 -10.84247435 83.79401751 -10.81956387 82.7185297 C-10.77541071 80.64604624 -10.73120977 78.5735638 -10.68695927 76.50108242 C-10.54994579 70.05909996 -10.42002506 63.61700925 -10.29394531 57.17480469 C-10.1613164 50.42575888 -10.0118797 43.67737253 -9.83680248 36.92928791 C-9.75137844 33.62553128 -9.67654309 30.3221449 -9.6177063 27.01779175 C-9.55282071 23.44446833 -9.45826822 19.87318444 -9.35546875 16.30078125 C-9.34387726 15.27524139 -9.33228577 14.24970154 -9.32034302 13.19308472 C-9.15502857 8.55052469 -9.00682021 6.30406382 -6.1652832 2.49682617 C-3.5 0.625 -3.5 0.625 0 0 Z " fill="#434F64" transform="translate(341.5,234.375)"/>
<path d="M0 0 C4.54321756 0.81128885 5.72931425 1.94779794 8.5 5.625 C9.2918123 8.96424122 9.24336926 12.26714171 9.25 15.6875 C9.27255859 16.77385742 9.29511719 17.86021484 9.31835938 18.97949219 C9.36948095 21.5942916 9.41055014 24.20774158 9.43945312 26.82275391 C9.50526636 32.50095683 9.62090387 38.17805021 9.734375 43.85546875 C9.86994722 50.68945185 10.00384163 57.52342761 10.12597656 64.35766602 C10.32870301 75.61830276 10.56294993 86.87074761 11 98.125 C11.6059512 113.95416669 11.76295274 129.79064282 11.99411011 145.62872314 C12.21429138 160.35635297 12.50492673 175.07608773 13.0078125 189.796875 C13.03040445 190.45937634 13.05299641 191.12187767 13.07627296 191.8044548 C13.31542087 198.77014616 13.57059854 205.7351096 13.83959961 212.69970703 C14.47748232 229.69343362 14.57525334 246.61774611 14.5 263.625 C4.6 263.625 -5.3 263.625 -15.5 263.625 C-15.0798892 247.58034282 -15.0798892 247.58034282 -14.89038086 240.36181641 C-14.75686187 235.27594378 -14.62340054 230.19006969 -14.49026489 225.10418701 C-14.01268927 206.86401964 -13.53166848 188.6239827 -13.02346039 170.38463974 C-12.8487736 164.11382136 -12.67507223 157.84297556 -12.50170135 151.57212067 C-12.45877892 150.01964455 -12.41581502 148.46716958 -12.37281036 146.91469574 C-11.83552166 127.49779353 -11.36966586 108.0830751 -11.05435181 88.66104126 C-10.89425633 78.98187173 -10.7027903 69.30335858 -10.5 59.625 C-10.47526611 58.4171283 -10.45053223 57.20925659 -10.42504883 55.96478271 C-10.26629085 48.37871582 -10.07781284 40.79423585 -9.8527832 33.20983887 C-9.78490492 30.80112712 -9.72533448 28.39216521 -9.67456055 25.98303223 C-9.60286307 22.66334581 -9.50066573 19.34594988 -9.390625 16.02734375 C-9.37586121 15.04364304 -9.36109741 14.05994232 -9.34588623 13.0464325 C-9.16189447 8.46271616 -8.98303991 6.26806076 -6.16308594 2.51391602 C-3.5 0.625 -3.5 0.625 0 0 Z " fill="#434F65" transform="translate(1107.5,234.375)"/>
<path d="M0 0 C6.22659753 7.15423349 10.69160314 15.00447879 10.27734375 24.6484375 C9.10078019 34.62437078 4.86964539 41.97724946 -2.875 48.375 C-11.83626893 53.03485985 -21.10920726 54.75118516 -30.99609375 51.875 C-38.68805926 48.516325 -44.23596432 42.37495805 -48 35 C-51.43023421 26.21727473 -50.58293075 17.52303224 -47 9 C-43.15235152 2.04463543 -37.33557152 -2.90998328 -29.92578125 -5.8125 C-19.18941955 -8.84989899 -9.0786192 -6.27950169 0 0 Z " fill="#445065" transform="translate(744,411)"/>
<path d="M0 0 C0.33 0 0.66 0 1 0 C1 11.55 1 23.1 1 35 C3.31 35 5.62 35 8 35 C8 34.34 8 33.68 8 33 C232.73 33 457.46 33 689 33 C689.33 31.68 689.66 30.36 690 29 C690 31.31 690 33.62 690 36 C462.3 36 234.6 36 0 36 C0 24.12 0 12.24 0 0 Z " fill="#F2F2F3" transform="translate(379,462)"/>
<path d="M0 0 C31.35 0 62.7 0 95 0 C95 9.03030303 95 9.03030303 91 14 C88.99013225 16.00986775 84.90294019 15.15720826 82.1472168 15.16113281 C81.32444244 15.16609772 80.50166809 15.17106262 79.65396118 15.17617798 C76.91903867 15.19083988 74.18417418 15.19760878 71.44921875 15.203125 C69.55450945 15.20887379 67.65980018 15.21463155 65.76509094 15.22039795 C61.78618091 15.23091985 57.80729114 15.23675451 53.82836914 15.24023438 C48.72699069 15.24571711 43.62587944 15.2697354 38.52458477 15.29820633 C34.60839555 15.31682176 30.69227076 15.32203776 26.77604103 15.32357025 C24.89534865 15.32660054 23.01465751 15.33464169 21.13400841 15.34775543 C18.50278756 15.36479075 15.87222026 15.36294176 13.2409668 15.35644531 C12.46210617 15.3656601 11.68324554 15.37487488 10.88078308 15.3843689 C7.68362296 15.35961351 5.38238988 15.2081113 2.54743958 13.66522217 C-1.25715423 9.5710436 0 5.82783206 0 0 Z " fill="#445066" transform="translate(1030,840)"/>
<path d="M0 0 C31.35 0 62.7 0 95 0 C95 9.07692308 95 9.07692308 92 13 C89.06653361 15.93346639 85.96608602 15.30305125 82.03369141 15.30639648 C81.21077103 15.31472 80.38785065 15.32304352 79.53999329 15.33161926 C76.8104687 15.35578095 74.0811828 15.36449895 71.3515625 15.37109375 C69.45828172 15.38005559 67.56500168 15.38917734 65.67172241 15.39845276 C61.69877397 15.41496222 57.72590999 15.42264639 53.75292969 15.42553711 C48.65920515 15.43092213 43.56627322 15.46859858 38.4727726 15.51428127 C34.56085302 15.54400865 30.64912524 15.55125973 26.73710251 15.55226326 C24.85917913 15.55647439 22.98125564 15.56894432 21.10344315 15.58978081 C18.47673375 15.61660559 15.85187358 15.61189709 13.22509766 15.59936523 C12.05916328 15.62161667 12.05916328 15.62161667 10.86967468 15.64431763 C6.98512783 15.59148018 5.36642672 15.36058135 2.5484314 12.58753967 C-0.58173597 7.35680599 0 7.60984274 0 0 Z " fill="#445066" transform="translate(324,840)"/>
<path d="M0 0 C184.14 0 368.28 0 558 0 C558 0.66 558 1.32 558 2 C556.82927169 1.99924056 555.65854338 1.99848112 554.45233846 1.99769866 C502.87470233 1.96437201 451.2970653 1.9335149 399.71942139 1.91531372 C398.54875783 1.91489955 398.54875783 1.91489955 397.35444451 1.91447701 C380.39472434 1.90849167 363.43500404 1.90295124 346.47528358 1.89786934 C338.15865257 1.89537459 329.84202159 1.8927815 321.52539062 1.89013672 C320.69777081 1.8898752 319.87015099 1.88961368 319.01745179 1.88934424 C292.17540398 1.88081635 265.33336458 1.86578986 238.49132187 1.84740556 C210.91550192 1.82855293 183.33968663 1.81623203 155.76386034 1.81217002 C151.87202047 1.81159368 147.98018061 1.81094241 144.08834076 1.81024551 C143.32234509 1.81011067 142.55634941 1.80997582 141.76714175 1.80983689 C129.419741 1.80747031 117.07235461 1.79818574 104.72495973 1.78633593 C92.32195058 1.7745796 79.9189557 1.77005948 67.51594117 1.77299725 C60.79154357 1.77438771 54.06719076 1.77225712 47.34280014 1.76158905 C41.19422977 1.75190527 35.04573034 1.75133318 28.8971568 1.75820221 C26.66560503 1.75905203 24.43404895 1.75647383 22.20250574 1.75023364 C19.18298705 1.74227681 16.16372881 1.74649127 13.14421463 1.75390434 C11.82676565 1.7460233 11.82676565 1.7460233 10.48270154 1.73798305 C9.67959924 1.74247763 8.87649693 1.74697222 8.0490582 1.75160301 C7.35837599 1.75129105 6.66769379 1.75097908 5.95608182 1.75065767 C3.64668724 2.04503688 2.01622142 2.86376926 0 4 C0 2.68 0 1.36 0 0 Z " fill="#F3F3F4" transform="translate(441,841)"/>
<path d="M0 0 C1.74216797 0.04060547 1.74216797 0.04060547 3.51953125 0.08203125 C4.39996094 0.11683594 5.28039062 0.15164063 6.1875 0.1875 C6.1875 0.8475 6.1875 1.5075 6.1875 2.1875 C7.06148438 2.33251953 7.06148438 2.33251953 7.953125 2.48046875 C12.35570992 3.8735944 14.95865542 7.27032084 17.1875 11.1875 C18.29180942 16.78218016 18.00225711 21.46397533 15.5625 26.625 C8.05814811 34.72180072 8.05814811 34.72180072 2.20703125 35.42578125 C-4.52256506 35.65208626 -9.26251587 34.20326322 -14.421875 29.8203125 C-18.45592383 25.26501017 -18.59779289 20.24947114 -18.3671875 14.35546875 C-17.33200462 8.44326228 -14.23134465 4.98920791 -9.53125 1.48828125 C-6.15561576 -0.12678513 -3.72298064 -0.1128176 0 0 Z " fill="#475469" transform="translate(467.8125,652.8125)"/>
<path d="M0 0 C1.74216797 0.04060547 1.74216797 0.04060547 3.51953125 0.08203125 C4.39996094 0.11683594 5.28039062 0.15164063 6.1875 0.1875 C6.1875 0.8475 6.1875 1.5075 6.1875 2.1875 C6.78175781 2.28417969 7.37601562 2.38085938 7.98828125 2.48046875 C10.64428478 3.33435266 11.60267703 4.37230122 13.375 6.5 C14.13876953 7.39138672 14.13876953 7.39138672 14.91796875 8.30078125 C17.60218184 12.28993486 17.50610084 16.48813766 17.1875 21.1875 C15.29462105 26.96576207 12.62560061 31.09378488 7.359375 34.30078125 C2.65848376 36.22003001 -3.09337968 36.03311098 -7.91015625 34.53515625 C-12.44165953 32.2146282 -15.94331032 28.90966341 -17.8125 24.1875 C-18.71622466 18.81992326 -18.986912 13.68798647 -16.6328125 8.67578125 C-12.15166765 2.39521295 -7.82969234 -0.2372634 0 0 Z " fill="#465368" transform="translate(376.8125,652.8125)"/>
<path d="M0 0 C4.80823237 1.99865195 7.82027006 5.27725179 10 10 C11.78068208 14.85640566 11.3954264 19.67415852 9.9375 24.5625 C7.12001072 29.56127131 3.49650504 33.16783165 -2 35 C-7.26612474 35.58698843 -12.34670368 35.96758634 -16.9375 33 C-21.21644092 29.32792811 -23.48040169 25.08327675 -24.4140625 19.54296875 C-24.78842225 13.12959516 -23.17441378 8.84410583 -19 4 C-13.71290335 -1.28709665 -7.04016807 -1.01701058 0 0 Z " fill="#49556A" transform="translate(565,653)"/>
<path d="M0 0 C0.33 0 0.66 0 1 0 C1.17161804 9.35407994 1.33810799 18.70824694 1.5 28.0625 C1.51187725 28.74859848 1.5237545 29.43469696 1.53599167 30.1415863 C1.8856744 50.42863165 2.17004829 70.70931487 2 91 C1.67 91 1.34 91 1 91 C0.505 88.525 0.505 88.525 0 86 C-0.33 86 -0.66 86 -1 86 C-1.07464859 66.40933947 -0.86943179 46.8373229 -0.5 27.25 C-0.45130622 24.58334244 -0.40341404 21.91667121 -0.35546875 19.25 C-0.23961376 12.83328296 -0.12098394 6.41662229 0 0 Z " fill="#606572" transform="translate(308,270)"/>
<path d="M0 0 C0.33 0 0.66 0 1 0 C1.33 5.28 1.66 10.56 2 16 C5.83147984 16.95786996 9.02043783 17.19975875 12.953125 17.31640625 C13.61334656 17.33718735 14.27356812 17.35796844 14.95379639 17.37937927 C17.05243015 17.44450147 19.15118372 17.50358502 21.25 17.5625 C22.67709547 17.60572079 24.10417905 17.6493362 25.53125 17.69335938 C29.02070722 17.80014411 32.51029753 17.90151566 36 18 C36 18.33 36 18.66 36 19 C24.12 19 12.24 19 0 19 C0 12.73 0 6.46 0 0 Z " fill="#D4D7DB" transform="translate(1145,479)"/>
<path d="M0 0 C0 0.66 0 1.32 0 2 C-2.97 2 -5.94 2 -9 2 C-9 2.66 -9 3.32 -9 4 C-11.31 4.33 -13.62 4.66 -16 5 C-16.33 4.01 -16.66 3.02 -17 2 C-11.16200408 0.30167391 -6.06892629 -0.25287193 0 0 Z " fill="#24293C" transform="translate(1112,211)"/>
<path d="M0 0 C0.66 0.33 1.32 0.66 2 1 C1.0919838 2.13199353 0.17316174 3.25532363 -0.75 4.375 C-1.26046875 5.00148438 -1.7709375 5.62796875 -2.296875 6.2734375 C-4.08199481 8.08312318 -5.67949644 9.00117455 -8 10 C-8 7 -8 7 -6.25 5.17578125 C-5.5075 4.56089844 -4.765 3.94601562 -4 3.3125 C-3.2575 2.68988281 -2.515 2.06726563 -1.75 1.42578125 C-1.1725 0.95527344 -0.595 0.48476563 0 0 Z " fill="#4C586C" transform="translate(571,294)"/>
<path d="M0 0 C0.66 0 1.32 0 2 0 C0.63855967 5.19822672 -1.46730171 8.09543873 -5 12 C-5.66 11.67 -6.32 11.34 -7 11 C-6.57847656 10.37351562 -6.15695312 9.74703125 -5.72265625 9.1015625 C-4.90087891 7.87566406 -4.90087891 7.87566406 -4.0625 6.625 C-3.24458984 5.40683594 -3.24458984 5.40683594 -2.41015625 4.1640625 C-0.98906121 2.07280816 -0.98906121 2.07280816 0 0 Z " fill="#E8E9EC" transform="translate(1233,804)"/>
<path d="M0 0 C0.66 0.33 1.32 0.66 2 1 C0.02 3.97 -1.96 6.94 -4 10 C-4.66 8.68 -5.32 7.36 -6 6 C-4.02 4.02 -2.04 2.04 0 0 Z " fill="#D5E5EE" transform="translate(298,587)"/>
<path d="M0 0 C3.63 0 7.26 0 11 0 C10.67 0.99 10.34 1.98 10 3 C6.7 2.67 3.4 2.34 0 2 C0 1.34 0 0.68 0 0 Z " fill="#D4E9F2" transform="translate(1131,583)"/>
<path d="M0 0 C0.33 0 0.66 0 1 0 C1.22174933 1.45635371 1.42698698 2.91522956 1.625 4.375 C1.74101562 5.18710937 1.85703125 5.99921875 1.9765625 6.8359375 C1.98429687 7.55007813 1.99203125 8.26421875 2 9 C1.34 9.66 0.68 10.32 0 11 C-0.66 11 -1.32 11 -2 11 C-1.34 7.37 -0.68 3.74 0 0 Z " fill="#CBDEEB" transform="translate(485,668)"/>
<path d="M0 0 C0.66 0 1.32 0 2 0 C1.67 1.32 1.34 2.64 1 4 C0.34 4 -0.32 4 -1 4 C-1 5.32 -1 6.64 -1 8 C-1.66 8 -2.32 8 -3 8 C-2.25 2.25 -2.25 2.25 0 0 Z " fill="#4F5B6E" transform="translate(621,357)"/>
<path d="M0 0 C1.99097846 2.98646769 2.94124926 5.59687262 4 9 C3.01 9 2.02 9 1 9 C-1.125 3.375 -1.125 3.375 0 0 Z " fill="#151F35" transform="translate(306,851)"/>
</svg>
