<?xml version="1.0" encoding="UTF-8"?>
<svg version="1.1" xmlns="http://www.w3.org/2000/svg" width="1448" height="1086">
<path d="M0 0 C477.84 0 955.68 0 1448 0 C1448 358.38 1448 716.76 1448 1086 C970.16 1086 492.32 1086 0 1086 C0 727.62 0 369.24 0 0 Z " fill="#FEFDFD" transform="translate(0,0)"/>
<path d="M0 0 C1.76778908 -0.00208851 3.5355773 -0.00505267 5.30336362 -0.00880873 C10.1605117 -0.01659034 15.01758016 -0.01194029 19.87472693 -0.00525283 C25.15921828 -0.00017809 30.44369746 -0.0066998 35.72818708 -0.01173949 C44.98978561 -0.01896451 54.25136083 -0.01874271 63.51296043 -0.01364517 C77.28520509 -0.00608556 91.05743004 -0.00994491 104.82967456 -0.01606179 C127.99962011 -0.0259882 151.16955416 -0.02635029 174.33950043 -0.02090836 C175.04486995 -0.02074276 175.75023947 -0.02057717 176.47698382 -0.02040657 C177.18348377 -0.02024071 177.88998372 -0.02007485 178.61789276 -0.01990396 C200.14215168 -0.01485754 221.66640681 -0.01355484 243.1906662 -0.01594925 C244.63205107 -0.01610421 246.07343594 -0.01625852 247.51482081 -0.01641219 C253.30715538 -0.01703312 259.09948995 -0.01767046 264.89182451 -0.01833172 C281.08377693 -0.02016573 297.27572937 -0.02130693 313.46768188 -0.02190399 C314.20502379 -0.02193128 314.9423657 -0.02195857 315.7020513 -0.02198669 C339.1968098 -0.02280524 362.69156699 -0.0205515 386.18632507 -0.01620483 C386.94835148 -0.01606434 387.7103779 -0.01592384 388.49549602 -0.01577908 C400.87029577 -0.01348919 413.2450955 -0.01105026 425.61989522 -0.00859874 C474.69972801 0.00111393 523.77954989 0.00066312 572.85938263 -0.00905991 C585.22794087 -0.01150229 597.59649911 -0.01392439 609.96505737 -0.01620483 C610.72663551 -0.01634573 611.48821364 -0.01648663 612.2728699 -0.01663179 C635.74314696 -0.02094418 659.21342311 -0.02277271 682.68370056 -0.02190399 C683.42050096 -0.02187682 684.15730135 -0.02184965 684.91642903 -0.02182166 C701.09039498 -0.0211967 717.26436084 -0.01992942 733.43832669 -0.01808299 C739.2254816 -0.0174247 745.01263651 -0.01679854 750.79979142 -0.01618156 C752.23948359 -0.01602679 753.67917577 -0.01586933 755.11886794 -0.01570917 C776.63737977 -0.013322 798.15588733 -0.01535484 819.67439862 -0.02040657 C820.37976814 -0.02057216 821.08513766 -0.02073775 821.81188202 -0.02090836 C822.5159502 -0.02107372 823.22001839 -0.02123909 823.94542197 -0.02140946 C847.69124488 -0.02692566 871.43705404 -0.02489346 895.18287599 -0.01434687 C908.87571079 -0.00846612 922.56851957 -0.00810275 936.26135371 -0.01563922 C945.402265 -0.02011609 954.54315539 -0.01734715 963.68406358 -0.00862968 C968.89573294 -0.0038622 974.10735053 -0.00226606 979.3190183 -0.00944164 C984.06074218 -0.01590374 988.80236835 -0.01315518 993.54408511 -0.00308032 C995.24820037 -0.00106704 996.95232372 -0.00239549 998.65643255 -0.0074922 C1009.65052041 -0.03803879 1020.38991143 0.13568017 1030.70069122 4.43918228 C1031.61076935 4.80398697 1032.52084747 5.16879166 1033.45850372 5.54465103 C1041.05907682 9.70686963 1047.35932432 15.72359607 1053.57569122 21.68918228 C1055.05470087 23.09559742 1056.53387242 24.50184232 1058.01319122 25.90793228 C1059.13854279 26.98107681 1059.13854279 26.98107681 1060.28662872 28.07590103 C1063.30232603 30.94235735 1066.33974134 33.78525089 1069.37671661 36.62912369 C1075.24570905 42.12735375 1081.0447441 47.66597787 1086.68897247 53.39621353 C1088.50786985 55.18498424 1090.38387728 56.84813762 1092.32569122 58.50168228 C1105.33126455 69.7575098 1117.17455923 81.41294143 1119.57569122 99.25168228 C1119.67278072 101.75216012 1119.71896624 104.25485122 1119.72959137 106.7571907 C1119.73397362 107.49226788 1119.73835588 108.22734505 1119.74287093 108.98469728 C1119.75617848 111.43705765 1119.76241959 113.88938216 1119.76856232 116.34177017 C1119.77646968 118.10479262 1119.78473902 119.86781348 1119.79334259 121.63083267 C1119.81949093 127.41198573 1119.83486379 133.19314576 1119.84912872 138.97433853 C1119.8544915 140.96945512 1119.85986901 142.96457167 1119.86526108 144.95968819 C1119.8868799 153.26289271 1119.9056141 161.56609535 1119.91688347 169.86932087 C1119.933108 181.74267309 1119.96626103 193.61569736 1120.02328432 205.48892599 C1120.06207025 213.85181361 1120.08152643 222.21461382 1120.08680403 230.57758898 C1120.09044582 235.5652491 1120.10234193 240.55255886 1120.13490677 245.54012108 C1120.16513979 250.23770215 1120.17124531 254.93472364 1120.15952301 259.63238144 C1120.15930354 261.34754595 1120.16750265 263.0627376 1120.18517685 264.77781105 C1120.33593553 280.26167808 1117.15390507 292.2911973 1106.57569122 304.25168228 C1095.35580224 315.30125037 1082.01111454 318.44094943 1066.82569122 318.34933853 C1065.47761383 318.34721611 1065.47761383 318.34721611 1064.10230255 318.34505081 C1061.26006347 318.33949811 1058.41790609 318.32695466 1055.57569122 318.31418228 C1053.63689029 318.30916116 1051.6980881 318.30459933 1049.75928497 318.30051041 C1045.03138939 318.28954422 1040.30355411 318.27231273 1035.57569122 318.25168228 C1035.5834256 319.52003922 1035.59115997 320.78839615 1035.59912872 322.09518814 C1035.63466332 327.9224918 1034.73632258 332.88399042 1030.70069122 337.30636978 C1023.37691491 343.795451 1018.15282934 345.39403187 1008.4240799 345.42868423 C1007.61690018 345.43525543 1006.80972046 345.44182663 1005.97808075 345.44859695 C1003.31660609 345.46824839 1000.65518759 345.47997336 997.99365997 345.48996353 C996.62541297 345.49607682 996.62541297 345.49607682 995.22952461 345.50231361 C990.40277715 345.52313806 985.57605782 345.53745629 980.74927521 345.5468483 C975.77611553 345.55791443 970.80340304 345.59232711 965.83040142 345.63202 C961.99469443 345.65821478 958.15909369 345.6665426 954.32330513 345.67012978 C952.49056027 345.67498709 950.65781989 345.68657662 948.82516289 345.70516777 C946.25491332 345.72962419 943.68581744 345.72858282 941.11548615 345.72165298 C939.99221924 345.74086807 939.99221924 345.74086807 938.84626007 345.76047134 C932.52069362 345.69865595 927.47251079 343.64198527 922.58740997 339.61105728 C916.72608157 332.48755491 915.57569122 327.62641895 915.57569122 318.25168228 C640.35569122 318.25168228 365.13569122 318.25168228 81.57569122 318.25168228 C81.57569122 320.89168228 81.57569122 323.53168228 81.57569122 326.25168228 C80.55381237 332.61003958 77.54073794 337.23156933 72.57569122 341.25168228 C64.20526902 346.98800857 54.02411544 345.81300478 44.34912872 345.74777603 C42.47303969 345.74793121 40.59695034 345.74942328 38.72086334 345.75218582 C34.80221007 345.75356551 30.88392474 345.74108174 26.96533966 345.71823502 C21.95409619 345.6898124 16.94346159 345.69260419 11.93217278 345.70532513 C8.06301461 345.71229351 4.19399613 345.70448042 0.3248558 345.6920681 C-1.52263477 345.68756765 -3.37014041 345.68720445 -5.21763229 345.6911335 C-7.80197196 345.69405815 -10.38548412 345.67748077 -12.96971893 345.65573502 C-14.10297859 345.66248749 -14.10297859 345.66248749 -15.25913239 345.66937637 C-23.06998961 345.56069195 -28.82393979 342.85205127 -34.42430878 337.25168228 C-37.69918723 332.80068649 -38.63290182 328.98620108 -38.52587128 323.47824478 C-38.51120819 322.49678482 -38.4965451 321.51532486 -38.48143768 320.50412369 C-38.46258514 319.76081802 -38.4437326 319.01751236 -38.42430878 318.25168228 C-39.6442453 318.26215591 -40.86418182 318.27262955 -42.12108612 318.28342056 C-46.68713649 318.31987344 -51.25317424 318.34267404 -55.81932831 318.36154556 C-57.78810038 318.37154588 -59.75685782 318.38515051 -61.72557831 318.40256119 C-64.57050458 318.42707398 -67.41523292 318.43822534 -70.26024628 318.44699478 C-71.12733215 318.45731735 -71.99441803 318.46763992 -72.88777924 318.4782753 C-87.48926383 318.4809008 -99.63850016 313.87523044 -110.24071503 303.64621353 C-121.90864547 290.85114848 -124.18945717 274.43475341 -124.02367401 257.83664322 C-124.02554367 256.15918999 -124.02959229 254.48173802 -124.03562164 252.80429459 C-124.04549485 248.30020298 -124.02459649 243.79675303 -123.9971416 239.29275417 C-123.97309329 234.55253543 -123.97625488 229.81232469 -123.97583771 225.07205582 C-123.97122811 217.12042935 -123.94770846 209.16904434 -123.91136932 201.21750259 C-123.86958908 192.05151643 -123.85205001 182.88574695 -123.84874958 173.71967101 C-123.84513851 163.91481597 -123.82625665 154.11003767 -123.8016293 144.30521488 C-123.79543003 141.49850877 -123.79177545 138.69180851 -123.7885952 135.8850975 C-123.78265412 131.46243617 -123.76622997 127.03992632 -123.74199104 122.61732864 C-123.73461117 121.00335996 -123.73048304 119.38937229 -123.73001099 117.77538681 C-123.7186003 97.95145549 -120.8012714 83.71010079 -106.42430878 69.25168228 C-105.21324 68.01483164 -104.00231269 66.77784248 -102.79149628 65.54074478 C-97.22148592 59.88547204 -91.65051622 54.30220716 -85.57665253 49.18527603 C-81.7485679 45.74625264 -78.18653357 42.03244706 -74.56786346 38.37570572 C-70.92624646 34.71053108 -67.21546084 31.21748138 -63.26805878 27.88058853 C-61.10956593 25.97361498 -59.12160457 23.93955367 -57.11180878 21.87668228 C-39.81515585 4.5208955 -23.85036638 -0.07133259 0 0 Z " fill="#3E4B5F" transform="translate(225.42430877685547,377.74831771850586)"/>
<path d="M0 0 C0.7731982 -0.0030531 1.54639641 -0.00610619 2.34302486 -0.00925181 C4.94242972 -0.01706578 7.54160297 -0.01061412 10.14100903 -0.00426924 C12.0280723 -0.00696176 13.91513449 -0.0105291 15.80219463 -0.01489371 C21.01380323 -0.02438052 26.22534221 -0.02134176 31.43695431 -0.01633817 C37.09697291 -0.0130804 42.75697634 -0.02134667 48.41699016 -0.02815652 C58.34561438 -0.03848086 68.27421908 -0.0412961 78.20284814 -0.03924429 C88.85773193 -0.03704776 99.51260315 -0.03905946 110.16748399 -0.04638922 C111.17644776 -0.04707818 111.17644776 -0.04707818 112.20579464 -0.04778106 C114.94530896 -0.04966431 117.68482327 -0.05157568 120.42433754 -0.05352344 C149.01412338 -0.07382071 177.60390139 -0.07993572 206.19369362 -0.08110766 C209.27178983 -0.08123715 212.34988605 -0.08137303 215.42798227 -0.08151448 C216.19180051 -0.08154849 216.95561875 -0.0815825 217.742583 -0.08161754 C234.66234839 -0.08243415 251.58211229 -0.08681303 268.50187689 -0.09182617 C275.46697297 -0.09388285 282.43206908 -0.0958629 289.39716518 -0.09785867 C290.16672799 -0.09807985 290.93629079 -0.09830102 291.72917368 -0.09852891 C335.83409556 -0.11117862 379.93901646 -0.11942696 424.04394025 -0.1185118 C425.69480354 -0.11848024 427.34566684 -0.11844877 428.99653014 -0.11841738 C436.4501938 -0.11827061 443.90385746 -0.11809427 451.35752112 -0.11790961 C454.68136238 -0.11782736 458.00520365 -0.11774707 461.32904491 -0.11766698 C462.99268802 -0.11762619 464.65633113 -0.11758415 466.31997424 -0.11754086 C518.93240498 -0.11618021 571.5448088 -0.13081717 624.15723199 -0.15862143 C637.41375409 -0.16562332 650.67027621 -0.17256217 663.92679852 -0.17915022 C664.74302638 -0.17955597 665.55925424 -0.17996172 666.40021627 -0.18037976 C691.55178142 -0.19280715 716.70334437 -0.20034038 741.85491246 -0.2028662 C742.64441868 -0.2029461 743.4339249 -0.203026 744.24735555 -0.20310832 C761.57781968 -0.20481477 778.90828366 -0.2053373 796.23874786 -0.20476757 C802.439696 -0.2045746 808.64064414 -0.20447051 814.84159228 -0.20441011 C816.38426331 -0.20439428 817.92693434 -0.20437387 819.46960537 -0.20434886 C844.06297664 -0.20399604 868.65632488 -0.21539932 893.24968954 -0.2326565 C918.01577036 -0.24994655 942.78181928 -0.2543473 967.54790359 -0.24113385 C970.96889643 -0.23930921 974.38988932 -0.23762267 977.81088227 -0.23601782 C978.48149997 -0.23569765 979.15211767 -0.23537747 979.84305711 -0.2350476 C991.11507266 -0.23005211 1002.38704 -0.24090181 1013.65904647 -0.25591692 C1023.45689897 -0.26786896 1033.25467799 -0.26537931 1043.05252705 -0.25097592 C1048.64118185 -0.24317244 1054.22964066 -0.24177695 1059.81828205 -0.25789063 C1064.89983861 -0.27241449 1069.98103539 -0.26861588 1075.06257575 -0.25004289 C1076.89193193 -0.24659278 1078.72131604 -0.24988141 1080.5506438 -0.26064531 C1100.28401522 -0.36900514 1100.28401522 -0.36900514 1107.04240875 6.00300834 C1111.35859939 10.60882909 1113.42972928 15.09007111 1113.45371026 21.46326578 C1113.46224023 22.49207361 1113.47077019 23.52088144 1113.47955865 24.58086526 C1113.47865227 25.69889032 1113.4777459 26.81691537 1113.47681206 27.96881998 C1113.4868879 29.74776399 1113.4868879 29.74776399 1113.49716729 31.56264627 C1113.51289464 34.80875878 1113.51952151 38.05471759 1113.52079886 41.30086362 C1113.52222309 43.33236216 1113.52649789 45.3638341 1113.5317933 47.39532602 C1113.5502863 54.49259515 1113.55846513 61.58978927 1113.55689019 68.68708169 C1113.5556901 75.28603235 1113.57676794 81.88465524 1113.60837752 88.48352301 C1113.63460098 94.16186467 1113.6452549 99.84009971 1113.64397937 105.5185014 C1113.64347136 108.90417056 1113.64906394 112.28954851 1113.67033547 115.67515695 C1113.68998432 119.45691281 1113.68416023 123.23783117 1113.67212456 127.01960123 C1113.68336358 128.12952936 1113.69460259 129.23945749 1113.70618218 130.3830198 C1113.64450269 138.03020325 1112.40140875 144.4363363 1107.36987847 150.40924966 C1106.79366753 150.85268716 1106.2174566 151.29612466 1105.62378472 151.75299966 C1105.04499566 152.21706216 1104.4662066 152.68112466 1103.86987847 153.15924966 C1100.01261868 155.66512609 1096.11114812 155.39421329 1091.69682872 155.38180083 C1090.92223109 155.38357584 1090.14763347 155.38535085 1089.34956318 155.38717965 C1086.72735902 155.39194913 1084.10520917 155.38953954 1081.48300236 155.38722074 C1079.58659065 155.3891724 1077.69017934 155.39156075 1075.79376867 155.39434871 C1070.54225349 155.40077512 1065.29075355 155.40090824 1060.03923518 155.4000713 C1054.34120097 155.40024028 1048.64317231 155.40614054 1042.94514084 155.41131216 C1031.6258012 155.42065736 1020.30646548 155.42456343 1008.98712247 155.42683113 C999.57298596 155.4288855 990.15885304 155.43326444 980.74471825 155.43928087 C979.72902705 155.43992679 979.72902705 155.43992679 978.69281684 155.44058576 C975.93512309 155.44234406 973.17742934 155.44411371 970.41973561 155.44589878 C936.97029804 155.46750872 903.52085966 155.47837873 870.0714167 155.48737502 C859.22687313 155.49030803 848.38232977 155.49367779 837.53778642 155.49734223 C836.77297298 155.49760052 836.00815953 155.49785881 835.22016992 155.49812493 C832.12614773 155.49917112 829.03212555 155.50021955 825.93810336 155.50127075 C773.01642498 155.51923538 720.09474628 155.53461574 667.17306528 155.54202978 C663.01537937 155.54261376 658.85769346 155.54321103 654.70000755 155.5438074 C653.87524303 155.54392552 653.0504785 155.54404364 652.20072112 155.54416534 C643.84450022 155.54536275 635.48827933 155.5465715 627.13205844 155.54779787 C625.45659343 155.5480431 623.78112842 155.54828696 622.10566342 155.54852944 C568.28120306 155.55632131 514.45676448 155.57870945 460.63231365 155.61120587 C421.96300991 155.63454452 383.2937105 155.65609985 344.62439984 155.66321218 C343.82952012 155.6633592 343.0346404 155.66350622 342.21567342 155.6636577 C324.76794767 155.66684218 307.32022196 155.66889331 289.87249595 155.66988525 C282.85264469 155.6703 275.83279345 155.6708549 268.81294221 155.67144716 C268.04464774 155.67150783 267.27635327 155.6715685 266.48477715 155.671631 C241.71538863 155.67364869 216.94602579 155.68789952 192.17664624 155.70839216 C167.2354775 155.72895381 142.2943385 155.73687725 117.35316214 155.7273144 C113.90945959 155.72599587 110.465757 155.72481785 107.02205437 155.72372377 C106.0094295 155.723394 106.0094295 155.723394 104.97634755 155.72305756 C93.61973203 155.71974901 82.26319052 155.73232166 70.90658652 155.74905304 C61.04096183 155.7624944 51.17540788 155.76154353 41.3097826 155.74865108 C35.6799034 155.74170986 30.05022018 155.74123583 24.42035796 155.75821117 C19.30487441 155.7735107 14.18974603 155.77060581 9.07427354 155.75280089 C7.22926233 155.7496352 5.38422465 155.75326248 3.53924369 155.76429264 C1.04298787 155.77825145 -1.4520011 155.7677285 -3.94821179 155.75094432 C-4.66523451 155.76086169 -5.38225724 155.77077906 -6.12100793 155.78099696 C-11.8700628 155.69905488 -15.3630685 153.63226838 -19.42309028 149.69049966 C-23.10342958 145.05226384 -25.05911657 142.04500902 -25.08114082 136.08033121 C-25.08967078 135.03462457 -25.09820075 133.98891794 -25.1069892 132.91152322 C-25.10608283 131.76963037 -25.10517646 130.62773752 -25.10424262 129.45124185 C-25.11095985 128.24431177 -25.11767707 127.03738168 -25.12459785 125.79387796 C-25.14034313 122.48575497 -25.14695311 119.17788306 -25.14822942 115.86973989 C-25.1496523 113.80056503 -25.15392458 111.73141636 -25.15922385 109.66224802 C-25.17772532 102.43645948 -25.18589467 95.21074469 -25.18432075 87.98493326 C-25.18312058 81.26158596 -25.20419786 74.53856033 -25.23580807 67.81529438 C-25.26201453 62.03422954 -25.27268616 56.25326943 -25.27140993 50.47214568 C-25.2709014 47.02333856 -25.2765229 43.57481711 -25.29776603 40.12606943 C-25.32084116 36.27469877 -25.31160077 32.42376399 -25.29955512 28.5723356 C-25.31079414 27.43853967 -25.32203315 26.30474374 -25.33361274 25.13659036 C-25.27319752 17.52445345 -24.14878698 12.19721688 -19.10277778 6.22956216 C-18.55363715 5.78354654 -18.00449653 5.33753091 -17.43871528 4.87799966 C-16.8947309 4.41651529 -16.35074653 3.95503091 -15.79027778 3.47956216 C-10.79049234 0.37692851 -5.7468342 -0.03670173 0 0 Z " fill="#E0F0FB" transform="translate(179.81371527910233,486.74700033664703)"/>
<path d="M0 0 C1.09138564 -0.00649677 1.09138564 -0.00649677 2.20481948 -0.01312479 C4.63682294 -0.02395968 7.0682554 -0.01350748 9.50025386 -0.00311857 C11.27136987 -0.00655259 13.04248374 -0.01129973 14.81359312 -0.01723954 C19.69399089 -0.0297761 24.57421438 -0.02358707 29.45461304 -0.01440586 C34.75906665 -0.00771013 40.06348978 -0.01835511 45.36793697 -0.02680171 C54.6692308 -0.03919236 63.97047421 -0.04037071 73.27177352 -0.03425127 C87.10309139 -0.02517572 100.93436246 -0.03317977 114.76567673 -0.04454251 C140.18457906 -0.06480543 165.60345505 -0.06626629 191.02236276 -0.06089189 C194.6242865 -0.06013618 198.22621025 -0.05940856 201.828134 -0.05870992 C202.54355892 -0.05857083 203.25898383 -0.05843174 203.99608829 -0.05828843 C219.84900929 -0.0553365 235.70192748 -0.05834858 251.55484797 -0.06260621 C253.72432334 -0.06318837 255.89379871 -0.06375721 258.06327408 -0.06432184 C263.87887039 -0.06583678 269.6944667 -0.06736369 275.510063 -0.06891485 C316.11053075 -0.07967237 356.71099589 -0.08437259 397.31146449 -0.07644469 C398.45954839 -0.07622223 398.45954839 -0.07622223 399.6308259 -0.07599527 C408.1658018 -0.07433626 416.70077769 -0.07258668 425.23575357 -0.07080226 C426.39163569 -0.07056073 426.39163569 -0.07056073 427.57086896 -0.07031431 C433.82484402 -0.06900652 433.82484402 -0.06900652 436.91983355 -0.06835312 C486.21074626 -0.05796152 535.50162326 -0.06572797 584.79253119 -0.08935457 C597.21233507 -0.09529794 609.63213896 -0.10118948 622.051943 -0.1067639 C623.19903362 -0.10727955 623.19903362 -0.10727955 624.36929779 -0.10780563 C647.93681159 -0.1183325 671.5043224 -0.12392698 695.07183856 -0.12432104 C695.81170405 -0.12433383 696.55156954 -0.12434661 697.31385519 -0.12435978 C713.55524349 -0.12458807 729.79663152 -0.12358201 746.03801968 -0.12145072 C751.84938535 -0.12069595 757.66075103 -0.12001775 763.47211672 -0.11937057 C764.91784549 -0.11920788 766.36357425 -0.11904022 767.80930302 -0.11886756 C790.8492405 -0.11614594 813.88915632 -0.1247025 836.92908914 -0.13872166 C860.77805722 -0.15312669 884.62697514 -0.15267997 908.47594342 -0.13534694 C922.22877971 -0.12576372 935.98151033 -0.12726001 949.73433963 -0.14458163 C958.91535507 -0.15504013 968.0962897 -0.1510145 977.27729714 -0.13510159 C982.51196761 -0.12643704 987.74643042 -0.12412496 992.98109052 -0.13937091 C997.74377376 -0.15311163 1002.50607085 -0.14842776 1007.26873139 -0.12908572 C1008.98040371 -0.12535179 1010.69210716 -0.12830585 1012.40375139 -0.13879881 C1022.91598472 -0.19879855 1032.47455699 0.18812661 1041.36308783 6.49047941 C1042.09140815 7.2162216 1042.81972846 7.94196378 1043.57011908 8.68969816 C1044.79795111 9.87692472 1044.79795111 9.87692472 1046.05058783 11.08813566 C1046.82015815 11.84352628 1047.58972846 12.59891691 1048.38261908 13.37719816 C1049.70739857 14.53291055 1051.04024783 15.67946636 1052.38261908 16.81469816 C1056.43871711 20.33925108 1060.17413944 24.15400339 1063.94902533 27.97485441 C1066.01504273 30.01434189 1068.11267458 31.93227616 1070.32011908 33.81469816 C1074.18642732 37.11863429 1077.73896539 40.70415418 1081.30717963 44.32128996 C1084.5862681 47.62775645 1087.98296598 50.71953962 1091.52324408 53.74047941 C1094.623989 56.46991664 1097.50359818 59.41720479 1100.38261908 62.37719816 C1096.75789309 62.37719816 1093.13316727 62.37660816 1089.50844133 62.37604749 C1087.80769782 62.37578865 1086.10695432 62.37552984 1084.40621081 62.37527105 C1083.49010296 62.37513084 1082.57399511 62.37499063 1081.63012641 62.37484616 C1076.54496105 62.37406905 1071.45979569 62.37330248 1066.37463033 62.37253606 C1065.27390383 62.37237015 1064.17317732 62.37220425 1063.03909547 62.37203331 C981.74750053 62.35980368 900.45590534 62.34762065 762.43799323 62.33485502 C760.77157813 62.33471557 759.10516303 62.33457612 757.43874793 62.33443667 C722.46605985 62.33151444 687.49337175 62.32879781 652.52068363 62.32631848 C634.95694644 62.3250731 617.39320925 62.32378812 599.82947207 62.32246572 C597.18006047 62.32226647 594.53064887 62.32206835 591.88123727 62.32187028 C551.07111009 62.31880933 510.2609832 62.31489856 469.45085639 62.30853361 C468.57299661 62.30839671 467.69513683 62.30825981 466.79067524 62.30811876 C452.6363064 62.3059063 438.48193757 62.30362273 424.32756875 62.30132972 C383.56777315 62.29472771 342.80797779 62.28865031 302.04818171 62.28605837 C300.79142811 62.28597806 300.79142811 62.28597806 299.50928554 62.28589614 C281.11875007 62.2847305 262.7282146 62.28383559 244.33767911 62.28319718 C236.9385184 62.28293555 229.53935769 62.28263493 222.14019698 62.28232092 C221.3303878 62.28228749 220.52057861 62.28225406 219.68622975 62.28221962 C193.57749441 62.2811225 167.46876076 62.27684918 141.3600261 62.27091595 C115.07054994 62.26495614 88.78107542 62.26209756 62.49159857 62.26357417 C58.86189083 62.26377726 55.23218309 62.26394464 51.60247535 62.26409048 C50.5351534 62.2641353 50.5351534 62.2641353 49.44626939 62.26418103 C38.16204978 62.26456224 26.87783365 62.26157227 15.59361499 62.2571883 C4.50805699 62.25295036 -6.57749739 62.25233653 -17.66305607 62.25536635 C-23.59738108 62.25688358 -29.53169439 62.25678092 -35.46601818 62.25231498 C-40.85769524 62.24828802 -46.24935141 62.24880914 -51.64102812 62.25305818 C-53.58606107 62.2537762 -55.53109551 62.25279427 -57.47612653 62.24996291 C-60.10649538 62.24637476 -62.73678921 62.24890221 -65.36715567 62.25299966 C-66.12373359 62.25049079 -66.88031152 62.24798191 -67.65981604 62.245397 C-71.75029664 62.25908678 -75.60408558 62.58202592 -79.61738092 63.37719816 C-73.85164683 56.42874939 -67.67540598 49.93535471 -60.80488092 44.06469816 C-57.22839251 41.00219611 -53.92348599 37.724392 -50.61738092 34.37719816 C-46.78734704 30.49974087 -42.90134978 26.8097872 -38.73847467 23.28735441 C-36.47557851 21.24949765 -34.36692282 19.10467546 -32.2453106 16.92187589 C-23.02686336 7.45758422 -13.84185319 0.00458973 0 0 Z " fill="#4B586D" transform="translate(213.6173809170723,397.6228018403053)"/>
<path d="M0 0 C1.76778908 -0.00208851 3.5355773 -0.00505267 5.30336362 -0.00880873 C10.1605117 -0.01659034 15.01758016 -0.01194029 19.87472693 -0.00525283 C25.15921828 -0.00017809 30.44369746 -0.0066998 35.72818708 -0.01173949 C44.98978561 -0.01896451 54.25136083 -0.01874271 63.51296043 -0.01364517 C77.28520509 -0.00608556 91.05743004 -0.00994491 104.82967456 -0.01606179 C127.99962011 -0.0259882 151.16955416 -0.02635029 174.33950043 -0.02090836 C175.04486995 -0.02074276 175.75023947 -0.02057717 176.47698382 -0.02040657 C177.18348377 -0.02024071 177.88998372 -0.02007485 178.61789276 -0.01990396 C200.14215168 -0.01485754 221.66640681 -0.01355484 243.1906662 -0.01594925 C244.63205107 -0.01610421 246.07343594 -0.01625852 247.51482081 -0.01641219 C253.30715538 -0.01703312 259.09948995 -0.01767046 264.89182451 -0.01833172 C281.08377693 -0.02016573 297.27572937 -0.02130693 313.46768188 -0.02190399 C314.20502379 -0.02193128 314.9423657 -0.02195857 315.7020513 -0.02198669 C339.1968098 -0.02280524 362.69156699 -0.0205515 386.18632507 -0.01620483 C386.94835148 -0.01606434 387.7103779 -0.01592384 388.49549602 -0.01577908 C400.87029577 -0.01348919 413.2450955 -0.01105026 425.61989522 -0.00859874 C474.69972801 0.00111393 523.77954989 0.00066312 572.85938263 -0.00905991 C585.22794087 -0.01150229 597.59649911 -0.01392439 609.96505737 -0.01620483 C610.72663551 -0.01634573 611.48821364 -0.01648663 612.2728699 -0.01663179 C635.74314696 -0.02094418 659.21342311 -0.02277271 682.68370056 -0.02190399 C683.42050096 -0.02187682 684.15730135 -0.02184965 684.91642903 -0.02182166 C701.09039498 -0.0211967 717.26436084 -0.01992942 733.43832669 -0.01808299 C739.2254816 -0.0174247 745.01263651 -0.01679854 750.79979142 -0.01618156 C752.23948359 -0.01602679 753.67917577 -0.01586933 755.11886794 -0.01570917 C776.63737977 -0.013322 798.15588733 -0.01535484 819.67439862 -0.02040657 C820.37976814 -0.02057216 821.08513766 -0.02073775 821.81188202 -0.02090836 C822.5159502 -0.02107372 823.22001839 -0.02123909 823.94542197 -0.02140946 C847.69124488 -0.02692566 871.43705404 -0.02489346 895.18287599 -0.01434687 C908.87571079 -0.00846612 922.56851957 -0.00810275 936.26135371 -0.01563922 C945.402265 -0.02011609 954.54315539 -0.01734715 963.68406358 -0.00862968 C968.89573294 -0.0038622 974.10735053 -0.00226606 979.3190183 -0.00944164 C984.06074218 -0.01590374 988.80236835 -0.01315518 993.54408511 -0.00308032 C995.24820037 -0.00106704 996.95232372 -0.00239549 998.65643255 -0.0074922 C1009.65052041 -0.03803879 1020.38991143 0.13568017 1030.70069122 4.43918228 C1031.61076935 4.80398697 1032.52084747 5.16879166 1033.45850372 5.54465103 C1041.05907682 9.70686963 1047.35932432 15.72359607 1053.57569122 21.68918228 C1055.05470087 23.09559742 1056.53387242 24.50184232 1058.01319122 25.90793228 C1059.13854279 26.98107681 1059.13854279 26.98107681 1060.28662872 28.07590103 C1063.30232603 30.94235735 1066.33974134 33.78525089 1069.37671661 36.62912369 C1075.24570905 42.12735375 1081.0447441 47.66597787 1086.68897247 53.39621353 C1088.50786985 55.18498424 1090.38387728 56.84813762 1092.32569122 58.50168228 C1105.33126455 69.7575098 1117.17455923 81.41294143 1119.57569122 99.25168228 C1119.67278072 101.75216012 1119.71896624 104.25485122 1119.72959137 106.7571907 C1119.73397362 107.49226788 1119.73835588 108.22734505 1119.74287093 108.98469728 C1119.75617848 111.43705765 1119.76241959 113.88938216 1119.76856232 116.34177017 C1119.77646968 118.10479262 1119.78473902 119.86781348 1119.79334259 121.63083267 C1119.81949093 127.41198573 1119.83486379 133.19314576 1119.84912872 138.97433853 C1119.8544915 140.96945512 1119.85986901 142.96457167 1119.86526108 144.95968819 C1119.8868799 153.26289271 1119.9056141 161.56609535 1119.91688347 169.86932087 C1119.933108 181.74267309 1119.96626103 193.61569736 1120.02328432 205.48892599 C1120.06207025 213.85181361 1120.08152643 222.21461382 1120.08680403 230.57758898 C1120.09044582 235.5652491 1120.10234193 240.55255886 1120.13490677 245.54012108 C1120.16513979 250.23770215 1120.17124531 254.93472364 1120.15952301 259.63238144 C1120.15930354 261.34754595 1120.16750265 263.0627376 1120.18517685 264.77781105 C1120.33593553 280.26167808 1117.15390507 292.2911973 1106.57569122 304.25168228 C1095.35580224 315.30125037 1082.01111454 318.44094943 1066.82569122 318.34933853 C1065.47761383 318.34721611 1065.47761383 318.34721611 1064.10230255 318.34505081 C1061.26006347 318.33949811 1058.41790609 318.32695466 1055.57569122 318.31418228 C1053.63689029 318.30916116 1051.6980881 318.30459933 1049.75928497 318.30051041 C1045.03138939 318.28954422 1040.30355411 318.27231273 1035.57569122 318.25168228 C1035.5834256 319.52003922 1035.59115997 320.78839615 1035.59912872 322.09518814 C1035.63466332 327.9224918 1034.73632258 332.88399042 1030.70069122 337.30636978 C1023.37691491 343.795451 1018.15282934 345.39403187 1008.4240799 345.42868423 C1007.61690018 345.43525543 1006.80972046 345.44182663 1005.97808075 345.44859695 C1003.31660609 345.46824839 1000.65518759 345.47997336 997.99365997 345.48996353 C996.62541297 345.49607682 996.62541297 345.49607682 995.22952461 345.50231361 C990.40277715 345.52313806 985.57605782 345.53745629 980.74927521 345.5468483 C975.77611553 345.55791443 970.80340304 345.59232711 965.83040142 345.63202 C961.99469443 345.65821478 958.15909369 345.6665426 954.32330513 345.67012978 C952.49056027 345.67498709 950.65781989 345.68657662 948.82516289 345.70516777 C946.25491332 345.72962419 943.68581744 345.72858282 941.11548615 345.72165298 C939.99221924 345.74086807 939.99221924 345.74086807 938.84626007 345.76047134 C932.52069362 345.69865595 927.47251079 343.64198527 922.58740997 339.61105728 C916.72608157 332.48755491 915.57569122 327.62641895 915.57569122 318.25168228 C640.35569122 318.25168228 365.13569122 318.25168228 81.57569122 318.25168228 C81.57569122 320.89168228 81.57569122 323.53168228 81.57569122 326.25168228 C80.55381237 332.61003958 77.54073794 337.23156933 72.57569122 341.25168228 C64.20526902 346.98800857 54.02411544 345.81300478 44.34912872 345.74777603 C42.47303969 345.74793121 40.59695034 345.74942328 38.72086334 345.75218582 C34.80221007 345.75356551 30.88392474 345.74108174 26.96533966 345.71823502 C21.95409619 345.6898124 16.94346159 345.69260419 11.93217278 345.70532513 C8.06301461 345.71229351 4.19399613 345.70448042 0.3248558 345.6920681 C-1.52263477 345.68756765 -3.37014041 345.68720445 -5.21763229 345.6911335 C-7.80197196 345.69405815 -10.38548412 345.67748077 -12.96971893 345.65573502 C-14.10297859 345.66248749 -14.10297859 345.66248749 -15.25913239 345.66937637 C-23.06998961 345.56069195 -28.82393979 342.85205127 -34.42430878 337.25168228 C-37.69918723 332.80068649 -38.63290182 328.98620108 -38.52587128 323.47824478 C-38.51120819 322.49678482 -38.4965451 321.51532486 -38.48143768 320.50412369 C-38.46258514 319.76081802 -38.4437326 319.01751236 -38.42430878 318.25168228 C-39.6442453 318.26215591 -40.86418182 318.27262955 -42.12108612 318.28342056 C-46.68713649 318.31987344 -51.25317424 318.34267404 -55.81932831 318.36154556 C-57.78810038 318.37154588 -59.75685782 318.38515051 -61.72557831 318.40256119 C-64.57050458 318.42707398 -67.41523292 318.43822534 -70.26024628 318.44699478 C-71.12733215 318.45731735 -71.99441803 318.46763992 -72.88777924 318.4782753 C-87.48926383 318.4809008 -99.63850016 313.87523044 -110.24071503 303.64621353 C-121.90864547 290.85114848 -124.18945717 274.43475341 -124.02367401 257.83664322 C-124.02554367 256.15918999 -124.02959229 254.48173802 -124.03562164 252.80429459 C-124.04549485 248.30020298 -124.02459649 243.79675303 -123.9971416 239.29275417 C-123.97309329 234.55253543 -123.97625488 229.81232469 -123.97583771 225.07205582 C-123.97122811 217.12042935 -123.94770846 209.16904434 -123.91136932 201.21750259 C-123.86958908 192.05151643 -123.85205001 182.88574695 -123.84874958 173.71967101 C-123.84513851 163.91481597 -123.82625665 154.11003767 -123.8016293 144.30521488 C-123.79543003 141.49850877 -123.79177545 138.69180851 -123.7885952 135.8850975 C-123.78265412 131.46243617 -123.76622997 127.03992632 -123.74199104 122.61732864 C-123.73461117 121.00335996 -123.73048304 119.38937229 -123.73001099 117.77538681 C-123.7186003 97.95145549 -120.8012714 83.71010079 -106.42430878 69.25168228 C-105.21324 68.01483164 -104.00231269 66.77784248 -102.79149628 65.54074478 C-97.22148592 59.88547204 -91.65051622 54.30220716 -85.57665253 49.18527603 C-81.7485679 45.74625264 -78.18653357 42.03244706 -74.56786346 38.37570572 C-70.92624646 34.71053108 -67.21546084 31.21748138 -63.26805878 27.88058853 C-61.10956593 25.97361498 -59.12160457 23.93955367 -57.11180878 21.87668228 C-39.81515585 4.5208955 -23.85036638 -0.07133259 0 0 Z M-38.04930878 30.93918228 C-38.58580048 31.4595607 -39.12229218 31.97993912 -39.6750412 32.51608658 C-41.27636673 34.07745627 -42.85273411 35.66043139 -44.42430878 37.25168228 C-45.33567596 38.16176041 -46.24704315 39.07183853 -47.18602753 40.00949478 C-48.85207935 41.67809799 -50.5137451 43.35109531 -52.17040253 45.02902603 C-54.15487798 46.98598709 -56.17911251 48.81994419 -58.29930878 50.62668228 C-62.42258505 54.14899521 -66.18777687 57.98734578 -69.9953537 61.84225845 C-73.36724082 65.23976701 -76.84293771 68.43509025 -80.49071503 71.53683853 C-83.58277141 74.27908651 -86.43774827 77.25148492 -89.32665253 80.20480728 C-91.42430878 82.25168228 -91.42430878 82.25168228 -94.61180878 84.62668228 C-100.32624788 89.96015878 -104.22204925 97.53197663 -104.55852985 105.38371754 C-104.56280334 106.62675616 -104.56707682 107.86979479 -104.5714798 109.15050125 C-104.57515649 109.84444518 -104.57883317 110.53838911 -104.58262128 111.25336164 C-104.59363311 113.5784116 -104.59749774 115.90341682 -104.60131073 118.22848892 C-104.60757741 119.89594031 -104.61422439 121.5633903 -104.62122345 123.23083878 C-104.64224679 128.70782884 -104.65262611 134.18481911 -104.66259003 139.66183853 C-104.66663861 141.54988939 -104.67075557 143.43794011 -104.67494011 145.32599068 C-104.69399016 154.19947893 -104.70822003 163.07295888 -104.71655208 171.94646364 C-104.72631585 182.174913 -104.75261369 192.40314546 -104.79305297 202.63151842 C-104.82326493 210.54593238 -104.83802588 218.46028436 -104.84133309 226.37475485 C-104.84367831 231.09740448 -104.85256943 235.81982235 -104.87779427 240.5424099 C-104.90116822 244.99039382 -104.90527097 249.43799493 -104.89503288 253.88602448 C-104.89453963 255.51171585 -104.90079759 257.13742667 -104.91458893 258.76305962 C-105.01055801 270.75368672 -104.07948316 281.41373331 -95.43212128 290.52902603 C-92.08917682 293.39719433 -88.38720612 295.37112203 -84.42430878 297.25168228 C-83.76430878 297.58168228 -83.10430878 297.91168228 -82.42430878 298.25168228 C-79.85458977 298.35025698 -77.31194171 298.38737583 -74.74190181 298.38048345 C-73.9342336 298.38225846 -73.12656538 298.38403347 -72.29442237 298.38586227 C-69.5534604 298.39064116 -66.81255019 298.38821991 -64.07158566 298.38590336 C-62.09197593 298.38785454 -60.1123666 298.39024271 -58.13275787 298.39303133 C-52.64555779 298.39946375 -47.15837229 298.39959038 -41.67116916 298.39875392 C-35.71934238 298.39892278 -29.76752093 298.40482174 -23.81569678 298.40999478 C-13.36852071 298.41825366 -2.92134751 298.42274848 7.52583122 298.42472076 C18.74033675 298.42684722 29.95483837 298.43110213 41.16934204 298.43796349 C41.87663642 298.4383941 42.58393079 298.43882471 43.31265833 298.43926838 C46.19318725 298.44102667 49.07371615 298.44279631 51.95424505 298.4445814 C86.90162398 298.46619642 121.84900369 298.47706254 156.79638778 298.48605763 C168.12739544 298.48899048 179.45840291 298.49236022 190.78941035 298.49602485 C191.5884903 298.49628314 192.38757024 298.49654143 193.21086472 298.49680755 C196.44349384 298.49785374 199.67612296 298.49890216 202.90875207 298.49995337 C258.20478077 298.51791923 313.50080977 298.53329918 368.79684098 298.5407124 C373.1415422 298.54129638 377.48624341 298.54189364 381.83094462 298.54249002 C382.69280812 298.54260814 383.55467162 298.54272626 384.44265219 298.54284796 C393.17475224 298.54404537 401.9068523 298.54525412 410.63895235 298.54648049 C412.38978377 298.54672572 414.14061519 298.54696958 415.8914466 298.54721206 C472.12704904 298.55500253 528.36263061 298.57738684 584.59822392 298.60988848 C624.9973586 298.6332295 665.39648915 298.65478372 705.79563046 298.6618948 C707.04150483 298.66211533 707.04150483 298.66211533 708.31254838 298.66234032 C726.54477265 298.66552494 744.77699688 298.66757597 763.0092214 298.66856786 C770.34493532 298.66898262 777.68064923 298.66953751 785.01636314 298.67012978 C786.22065738 298.67022078 786.22065738 298.67022078 787.44928079 298.67031362 C813.32631431 298.67233078 839.20332323 298.68657784 865.08034817 298.70707478 C891.14125183 298.72764418 917.20212703 298.73555587 943.263038 298.72599702 C946.86276962 298.72467852 950.46250128 298.72350049 954.06223297 298.72240639 C954.76789345 298.72218654 955.47355394 298.72196669 956.20059807 298.72174018 C967.38293089 298.7186235 978.56520936 298.72896151 989.74752958 298.74488194 C1000.7381548 298.76025127 1011.72871941 298.76106512 1022.71935126 298.7473337 C1028.60081825 298.74040063 1034.48209774 298.73989127 1040.36354841 298.75689379 C1045.71083923 298.77222676 1051.05779074 298.76925211 1056.40507117 298.75148351 C1058.33063589 298.74832565 1060.25622612 298.75191687 1062.18176167 298.76297526 C1073.94211692 298.82613203 1083.9497649 298.57160139 1092.95231724 290.0996027 C1101.04486787 280.88768377 1101.43075875 271.50602683 1101.30445099 259.88180923 C1101.30767539 258.14934012 1101.31350024 256.41687421 1101.32170868 254.68442154 C1101.33616618 250.00874074 1101.31340127 245.33392801 1101.28284955 240.65835214 C1101.25636777 235.75206998 1101.26178304 230.84581127 1101.26293182 225.9394722 C1101.26012856 217.70574921 1101.23416417 209.47235938 1101.19312286 201.23874283 C1101.14590621 191.73134824 1101.13013058 182.22431771 1101.13232952 172.71681434 C1101.1343585 162.572696 1101.11352637 152.42871718 1101.08598971 142.28464103 C1101.07960868 139.37008299 1101.07746797 136.45554758 1101.07627296 133.5409832 C1101.07325094 128.95664491 1101.05486629 124.37261004 1101.02477455 119.78837204 C1101.01604206 118.10984468 1101.01231481 116.4312824 1101.01405716 114.75273323 C1101.1378761 99.98414779 1101.1378761 99.98414779 1093.70069122 87.56418228 C1092.91049591 86.72886978 1092.1203006 85.89355728 1091.30615997 85.03293228 C1090.40510529 84.11511978 1089.5040506 83.19730728 1088.57569122 82.25168228 C1088.06087189 81.72316666 1087.54605255 81.19465103 1087.01563263 80.65011978 C1081.39742615 74.8930062 1075.73726192 69.26212832 1069.59912872 64.05636978 C1066.47931026 61.27382899 1063.57835429 58.27484203 1060.64380646 55.30026627 C1057.42170596 52.05134752 1054.08210819 49.02709307 1050.60303497 46.06027603 C1048.16140489 43.88209736 1045.87521091 41.5792022 1043.57569122 39.25168228 C1032.11210667 27.68260462 1022.4500884 20.00284435 1005.61282913 19.85363911 C1003.18771717 19.84882301 1000.76289504 19.85861803 998.33780193 19.86857224 C996.56582283 19.86483378 994.7938461 19.85978349 993.02187404 19.8535434 C988.14373792 19.84018784 983.26577311 19.84552387 978.38763244 19.8538769 C973.0838732 19.85967605 967.78014715 19.84814001 962.47639686 19.83881521 C953.17784772 19.824888 943.87934723 19.8221735 934.58078957 19.8267746 C920.75351119 19.83359888 906.92628219 19.82335908 893.09901068 19.80981704 C867.68711399 19.78556987 842.27524116 19.78027632 816.8633351 19.78212756 C813.26279471 19.78238718 809.66225432 19.78262585 806.06171393 19.78284264 C805.34655717 19.78288668 804.63140041 19.78293071 803.89457223 19.78297609 C788.04544698 19.78383951 772.19632497 19.77904806 756.34720099 19.77316072 C752.72824512 19.77181975 749.10928923 19.77051987 745.49033335 19.76921508 C744.03789837 19.76869055 742.58546339 19.76816596 741.13302841 19.76764131 C740.41308216 19.76738153 739.69313591 19.76712175 738.95137311 19.76685409 C737.4951222 19.76632791 736.03887129 19.76580024 734.58262039 19.76527108 C693.26058916 19.75027382 651.93856052 19.7415053 610.6165266 19.74622726 C609.85133247 19.74631313 609.08613834 19.74639899 608.2977565 19.74648746 C599.76501748 19.74744686 591.23227846 19.74848507 582.69953945 19.74954635 C580.36412026 19.74983587 578.02870107 19.75012535 575.69328188 19.75041475 C574.13505317 19.75060875 572.57682447 19.75080425 571.01859576 19.75100125 C521.74113951 19.75721748 472.46373239 19.74235637 423.18628693 19.70969009 C410.76975357 19.70146688 398.35322019 19.69331691 385.93668652 19.68558884 C384.7898875 19.68487454 384.7898875 19.68487454 383.61992083 19.68414582 C360.05726674 19.66956004 336.49461672 19.66111438 312.9319582 19.65902328 C311.82234095 19.65892381 311.82234095 19.65892381 310.69030719 19.65882232 C294.45134134 19.65742828 278.21237579 19.65753951 261.97340996 19.65903241 C256.16287585 19.65955453 250.35234172 19.65997169 244.54180759 19.66034058 C243.09629461 19.6604338 241.65078162 19.66053294 240.20526864 19.66063803 C217.17191031 19.66226314 194.13858856 19.64943865 171.10523971 19.62948025 C147.26225443 19.60894163 123.41934512 19.60679234 99.57635506 19.6256358 C85.82814433 19.63597851 72.08010071 19.63244985 58.33190501 19.60910495 C49.15273282 19.59489792 39.97368459 19.59880773 30.79452081 19.61755071 C25.56170664 19.62772348 20.3292183 19.62997209 15.09642418 19.61023003 C10.33423187 19.59242519 5.57263983 19.59770687 0.81047757 19.62125842 C-0.89986713 19.62570167 -2.61025952 19.62180549 -4.32055784 19.60845007 C-17.30390814 19.51394738 -28.59630194 21.27057777 -38.04930878 30.93918228 Z " fill="#101A2E" transform="translate(225.42430877685547,377.74831771850586)"/>
<path d="M0 0 C12.21 0 24.42 0 37 0 C37 3.3 37 6.6 37 10 C39.31 10 41.62 10 44 10 C44 13.96 44 17.92 44 22 C51.26 22 58.52 22 66 22 C66.1235066 29.61712712 66.2142984 37.23367275 66.2746582 44.8515625 C66.29981755 47.44346263 66.33394851 50.03529172 66.37719727 52.62695312 C66.43778231 56.35043861 66.46619646 60.07298695 66.48828125 63.796875 C66.51408768 64.95741394 66.5398941 66.11795288 66.56648254 67.31365967 C66.5668602 68.39447815 66.56723785 69.47529663 66.56762695 70.58886719 C66.57873001 71.53928894 66.58983307 72.48971069 66.60127258 73.46893311 C66 76 66 76 63.98944092 78.30386353 C60.16225 80.47531909 56.88620864 80.57653892 52.60131836 80.54931641 C51.76820633 80.55953827 50.9350943 80.56976013 50.07673645 80.58029175 C47.33081104 80.60802805 44.58589231 80.60617594 41.83984375 80.6015625 C39.9284274 80.60933784 38.0170145 80.61800748 36.10560608 80.62753296 C32.1034117 80.64244399 28.10157026 80.64188372 24.09936523 80.63134766 C18.96851327 80.61974101 13.83910124 80.65366419 8.70848751 80.700037 C4.763062 80.72948267 0.81798486 80.73125963 -3.12753105 80.72501755 C-5.01940203 80.72604487 -6.91129228 80.73653746 -8.80305672 80.75664139 C-11.44656582 80.78129332 -14.08724979 80.76784485 -16.73071289 80.74462891 C-17.51264008 80.75991638 -18.29456726 80.77520386 -19.10018921 80.79095459 C-21.28773499 80.7484436 -21.28773499 80.7484436 -25 80 C-28.3658628 76.34038294 -29.50214044 73.469395 -29.45410156 68.54541016 C-29.45379944 67.50478424 -29.45349731 66.46415833 -29.45318604 65.39199829 C-29.43254089 64.28552948 -29.41189575 63.17906067 -29.390625 62.0390625 C-29.38496521 60.89335785 -29.37930542 59.7476532 -29.37347412 58.56723022 C-29.35114072 54.91938945 -29.30094736 51.27254232 -29.25 47.625 C-29.22993119 45.14714963 -29.21168109 42.66928382 -29.1953125 40.19140625 C-29.15128544 34.12722317 -29.08227652 28.06377988 -29 22 C-21.74 22 -14.48 22 -7 22 C-7 18.04 -7 14.08 -7 10 C-4.69 10 -2.38 10 0 10 C0 6.7 0 3.4 0 0 Z " fill="#273248" transform="translate(399,528)"/>
<path d="M0 0 C12.21 0 24.42 0 37 0 C37 3.3 37 6.6 37 10 C39.31 10 41.62 10 44 10 C44 13.96 44 17.92 44 22 C46.25650391 21.98259766 46.25650391 21.98259766 48.55859375 21.96484375 C50.51822793 21.95546751 52.47786345 21.94636713 54.4375 21.9375 C55.92733398 21.92493164 55.92733398 21.92493164 57.44726562 21.91210938 C58.39150391 21.90888672 59.33574219 21.90566406 60.30859375 21.90234375 C61.62041626 21.89448853 61.62041626 21.89448853 62.95874023 21.88647461 C65 22 65 22 66 23 C66.1193483 24.56342019 66.17010628 26.13214747 66.19287109 27.69995117 C66.20893402 28.70156784 66.22499695 29.70318451 66.24154663 30.7351532 C66.28589628 35.33523005 66.32708557 39.93515967 66.35009766 44.53540039 C66.36663885 46.96127935 66.39390422 49.38710995 66.43212891 51.81274414 C66.48692964 55.30641021 66.50878034 58.79893056 66.5234375 62.29296875 C66.54610687 63.37442673 66.56877625 64.4558847 66.59213257 65.57011414 C66.58928253 66.58749161 66.5864325 67.60486908 66.58349609 68.65307617 C66.59158295 69.54274582 66.5996698 70.43241547 66.60800171 71.3490448 C65.74594596 75.10770391 64.06260754 77.71805787 61 80 C57.93607232 80.6026686 55.65972073 80.81428726 52.60131836 80.76049805 C51.76820633 80.76940567 50.9350943 80.77831329 50.07673645 80.78749084 C47.33030247 80.80875507 44.58621958 80.78648047 41.83984375 80.76171875 C39.92842875 80.7632213 38.01701439 80.76665164 36.10560608 80.77192688 C32.10321343 80.77625698 28.10162689 80.759429 24.09936523 80.72729492 C18.96858566 80.68748671 13.83931524 80.69682436 8.70848751 80.72152996 C4.76302205 80.73570917 0.81790942 80.72562991 -3.12753105 80.70801735 C-5.01936437 80.70216682 -6.91123377 80.70347097 -8.80305672 80.71204185 C-11.44642586 80.72003038 -14.08757938 80.69580432 -16.73071289 80.6628418 C-17.90360367 80.67566696 -17.90360367 80.67566696 -19.10018921 80.68875122 C-22.84080656 80.60820543 -24.64890449 80.31066257 -27.4884491 77.79812622 C-29.14341374 74.73451787 -29.48708571 73.02222862 -29.45410156 69.56713867 C-29.45379944 68.50641647 -29.45349731 67.44569427 -29.45318604 66.35282898 C-29.43254089 65.2193251 -29.41189575 64.08582123 -29.390625 62.91796875 C-29.38496521 61.74865311 -29.37930542 60.57933746 -29.37347412 59.37458801 C-29.35110936 55.64513975 -29.30091 51.9166572 -29.25 48.1875 C-29.22993525 45.65691493 -29.21168445 43.12631478 -29.1953125 40.59570312 C-29.15124378 34.39676414 -29.08221302 28.19854572 -29 22 C-21.74 22 -14.48 22 -7 22 C-7 18.04 -7 14.08 -7 10 C-4.69 10 -2.38 10 0 10 C0 6.7 0 3.4 0 0 Z " fill="#273247" transform="translate(1174,528)"/>
<path d="M0 0 C12.21 0 24.42 0 37 0 C37 3.3 37 6.6 37 10 C39.31 10 41.62 10 44 10 C44 13.96 44 17.92 44 22 C51.26 22 58.52 22 66 22 C66.12362037 29.45640006 66.21435234 36.91220332 66.2746582 44.36938477 C66.29979839 46.9059488 66.33391537 49.44244042 66.37719727 51.97875977 C66.43786661 55.62534451 66.46621574 59.27097132 66.48828125 62.91796875 C66.51408768 64.05147263 66.5398941 65.1849765 66.56648254 66.35282898 C66.5668602 67.41355118 66.56723785 68.47427338 66.56762695 69.56713867 C66.57873001 70.49757492 66.58983307 71.42801117 66.60127258 72.38664246 C65.7128694 76.24797792 64.16754966 77.66455984 61 80 C58.0362225 80.48978511 55.65055243 80.67597905 52.69311523 80.63110352 C51.86975677 80.63825882 51.04639832 80.64541412 50.1980896 80.65278625 C47.48435498 80.66965558 44.77227634 80.65028363 42.05859375 80.62890625 C40.16960005 80.62973504 38.28060642 80.63219478 36.39161682 80.63621521 C32.43639368 80.63907189 28.48173724 80.62438333 24.52661133 80.59692383 C19.45653189 80.56281787 14.38746416 80.56886821 9.31733608 80.5875864 C5.41823388 80.59815308 1.51936724 80.589222 -2.37971306 80.57420158 C-4.24921914 80.56901844 -6.1187498 80.56950319 -7.98825264 80.57574654 C-10.60021028 80.5811957 -13.21071741 80.56083518 -15.82250977 80.53344727 C-16.59508621 80.53997314 -17.36766266 80.54649902 -18.16365051 80.55322266 C-21.692901 80.49028039 -23.62474609 80.29245864 -26.44859314 78.09165955 C-28.84396527 74.86213728 -29.12587505 73.08211817 -29.12939453 69.10717773 C-29.13254669 68.08949814 -29.13569885 67.07181854 -29.13894653 66.02330017 C-29.1369223 64.92119705 -29.13489807 63.81909393 -29.1328125 62.68359375 C-29.13376923 61.55679703 -29.13472595 60.43000031 -29.13571167 59.26905823 C-29.13639303 56.88420557 -29.13454181 54.49935106 -29.13037109 52.11450195 C-29.12501729 48.44933948 -29.13032017 44.78429929 -29.13671875 41.11914062 C-29.13605806 38.80729139 -29.13477708 36.49544224 -29.1328125 34.18359375 C-29.13483673 33.0794664 -29.13686096 31.97533905 -29.13894653 30.8377533 C-29.13579437 29.82322586 -29.13264221 28.80869843 -29.12939453 27.76342773 C-29.12859894 26.86567123 -29.12780334 25.96791473 -29.12698364 25.04295349 C-29 23 -29 23 -28 22 C-26.36527118 21.91299658 -24.72685945 21.89298937 -23.08984375 21.90234375 C-22.10048828 21.90556641 -21.11113281 21.90878906 -20.09179688 21.91210938 C-19.05087891 21.92048828 -18.00996094 21.92886719 -16.9375 21.9375 C-15.37032227 21.94426758 -15.37032227 21.94426758 -13.77148438 21.95117188 C-11.18096546 21.96300073 -8.59047578 21.98093681 -6 22 C-6 18.04 -6 14.08 -6 10 C-4.02 10 -2.04 10 0 10 C0 6.7 0 3.4 0 0 Z " fill="#273248" transform="translate(786,528)"/>
<path d="M0 0 C11.88 0 23.76 0 36 0 C36 3.3 36 6.6 36 10 C38.31 10 40.62 10 43 10 C43 13.96 43 17.92 43 22 C50.26 22 57.52 22 65 22 C65.12362037 29.45640006 65.21435234 36.91220332 65.2746582 44.36938477 C65.29979839 46.9059488 65.33391537 49.44244042 65.37719727 51.97875977 C65.43786661 55.62534451 65.46621574 59.27097132 65.48828125 62.91796875 C65.51408768 64.05147263 65.5398941 65.1849765 65.56648254 66.35282898 C65.5668602 67.41355118 65.56723785 68.47427338 65.56762695 69.56713867 C65.57873001 70.49757492 65.58983307 71.42801117 65.60127258 72.38664246 C64.7128694 76.24797792 63.16754966 77.66455984 60 80 C57.0362225 80.48978511 54.65055243 80.67597905 51.69311523 80.63110352 C50.86975677 80.63825882 50.04639832 80.64541412 49.1980896 80.65278625 C46.48435498 80.66965558 43.77227634 80.65028363 41.05859375 80.62890625 C39.16960005 80.62973504 37.28060642 80.63219478 35.39161682 80.63621521 C31.43639368 80.63907189 27.48173724 80.62438333 23.52661133 80.59692383 C18.45653189 80.56281787 13.38746416 80.56886821 8.31733608 80.5875864 C4.41823388 80.59815308 0.51936724 80.589222 -3.37971306 80.57420158 C-5.24921914 80.56901844 -7.1187498 80.56950319 -8.98825264 80.57574654 C-11.60021028 80.5811957 -14.21071741 80.56083518 -16.82250977 80.53344727 C-17.59508621 80.53997314 -18.36766266 80.54649902 -19.16365051 80.55322266 C-22.692901 80.49028039 -24.62474609 80.29245864 -27.44859314 78.09165955 C-29.84396527 74.86213728 -30.12587505 73.08211817 -30.12939453 69.10717773 C-30.13254669 68.08949814 -30.13569885 67.07181854 -30.13894653 66.02330017 C-30.1369223 64.92119705 -30.13489807 63.81909393 -30.1328125 62.68359375 C-30.13376923 61.55679703 -30.13472595 60.43000031 -30.13571167 59.26905823 C-30.13639303 56.88420557 -30.13454181 54.49935106 -30.13037109 52.11450195 C-30.12501729 48.44933948 -30.13032017 44.78429929 -30.13671875 41.11914062 C-30.13605806 38.80729139 -30.13477708 36.49544224 -30.1328125 34.18359375 C-30.13483673 33.0794664 -30.13686096 31.97533905 -30.13894653 30.8377533 C-30.13579437 29.82322586 -30.13264221 28.80869843 -30.12939453 27.76342773 C-30.12859894 26.86567123 -30.12780334 25.96791473 -30.12698364 25.04295349 C-30 23 -30 23 -29 22 C-27.36527118 21.91299658 -25.72685945 21.89298937 -24.08984375 21.90234375 C-23.10048828 21.90556641 -22.11113281 21.90878906 -21.09179688 21.91210938 C-20.05087891 21.92048828 -19.00996094 21.92886719 -17.9375 21.9375 C-16.37032227 21.94426758 -16.37032227 21.94426758 -14.77148438 21.95117188 C-12.18096546 21.96300073 -9.59047578 21.98093681 -7 22 C-7 18.04 -7 14.08 -7 10 C-4.69 10 -2.38 10 0 10 C0 6.7 0 3.4 0 0 Z " fill="#273247" transform="translate(658,528)"/>
<path d="M0 0 C12.21 0 24.42 0 37 0 C37 3.3 37 6.6 37 10 C38.98 10 40.96 10 43 10 C43 13.96 43 17.92 43 22 C50.26 22 57.52 22 65 22 C65.09889659 29.45642222 65.17148355 36.91246243 65.21972656 44.36938477 C65.23983841 46.90591075 65.26713161 49.4423904 65.30175781 51.97875977 C65.35029242 55.62527911 65.37297363 59.27118528 65.390625 62.91796875 C65.41127014 64.05147263 65.43191528 65.1849765 65.45318604 66.35282898 C65.45363922 67.94391228 65.45363922 67.94391228 65.45410156 69.56713867 C65.46298401 70.49757492 65.47186646 71.42801117 65.48101807 72.38664246 C64.81322334 76.01475232 63.76858517 77.55343332 61 80 C58.04657657 80.4988737 55.667298 80.6751632 52.71484375 80.63110352 C51.46539474 80.64183647 51.46539474 80.64183647 50.19070435 80.65278625 C47.43907722 80.66968624 44.68907641 80.65026387 41.9375 80.62890625 C40.02465683 80.62973483 38.11181373 80.63219381 36.19897461 80.63621521 C32.19069987 80.6390741 28.18298364 80.62436318 24.17480469 80.59692383 C19.03631935 80.5628409 13.89883282 80.56885839 8.76029968 80.5875864 C4.81058424 80.59815381 0.8611013 80.58922093 -3.08859253 80.57420158 C-4.98321848 80.56901741 -6.87786869 80.56950443 -8.77249146 80.57574654 C-11.42047352 80.58119564 -14.06702472 80.5608343 -16.71484375 80.53344727 C-17.89009109 80.54323608 -17.89009109 80.54323608 -19.08908081 80.55322266 C-22.50651478 80.49310532 -24.63447541 80.24889808 -27.48944092 78.30485535 C-29.33070325 75.49540328 -29.48535406 73.93288488 -29.45410156 70.58886719 C-29.45379944 69.50804871 -29.45349731 68.42723022 -29.45318604 67.31365967 C-29.43254089 66.15312073 -29.41189575 64.99258179 -29.390625 63.796875 C-29.38496521 62.60394836 -29.37930542 61.41102173 -29.37347412 60.1819458 C-29.35107926 56.37088944 -29.30087429 52.56077233 -29.25 48.75 C-29.22993915 46.16668024 -29.21168766 43.58334575 -29.1953125 41 C-29.15120382 34.66630463 -29.08215232 28.33331157 -29 22 C-21.74 22 -14.48 22 -7 22 C-7 18.04 -7 14.08 -7 10 C-4.69 10 -2.38 10 0 10 C0 6.7 0 3.4 0 0 Z " fill="#273248" transform="translate(1045,528)"/>
<path d="M0 0 C12.21 0 24.42 0 37 0 C37 3.3 37 6.6 37 10 C39.31 10 41.62 10 44 10 C44 13.96 44 17.92 44 22 C51.26 22 58.52 22 66 22 C66.07417874 29.31402366 66.12861651 36.62782813 66.16479492 43.94213867 C66.17987761 46.4301332 66.20034654 48.91810117 66.22631836 51.40600586 C66.26272337 54.98297688 66.27973184 58.55959622 66.29296875 62.13671875 C66.30845261 63.24834885 66.32393646 64.35997894 66.33988953 65.5052948 C66.34011612 66.54599625 66.34034271 67.58669769 66.34057617 68.65893555 C66.35056892 70.02794258 66.35056892 70.02794258 66.36076355 71.42460632 C65.92133651 74.56155743 64.83964297 76.44344571 63 79 C59.85559441 80.5722028 56.48704689 80.16511754 53.03369141 80.17700195 C52.21077103 80.18357315 51.38785065 80.19014435 50.53999329 80.19691467 C47.81051549 80.21666278 45.08109271 80.22831269 42.3515625 80.23828125 C41.42062145 80.24235678 40.4896804 80.2464323 39.53052902 80.25063133 C34.60466482 80.27149704 29.67882854 80.28579743 24.75292969 80.29516602 C19.65934737 80.30624057 14.56620071 80.34065101 9.4727726 80.38033772 C5.56087416 80.40645102 1.64908044 80.41485306 -2.26289749 80.41844749 C-4.14081393 80.42332599 -6.0187253 80.43497573 -7.89655685 80.45348549 C-10.52302603 80.47776828 -13.14835587 80.47693224 -15.77490234 80.4699707 C-16.55219193 80.48278076 -17.32948151 80.49559082 -18.13032532 80.50878906 C-21.54035064 80.47580186 -23.6359479 80.24768871 -26.48568726 78.30882263 C-28.33008179 75.4967352 -28.48538858 73.9365776 -28.45410156 70.58886719 C-28.45379944 69.50804871 -28.45349731 68.42723022 -28.45318604 67.31365967 C-28.43254089 66.15312073 -28.41189575 64.99258179 -28.390625 63.796875 C-28.38496521 62.60394836 -28.37930542 61.41102173 -28.37347412 60.1819458 C-28.35107926 56.37088944 -28.30087429 52.56077233 -28.25 48.75 C-28.22993915 46.16668024 -28.21168766 43.58334575 -28.1953125 41 C-28.15120382 34.66630463 -28.08215232 28.33331157 -28 22 C-20.74 22 -13.48 22 -6 22 C-6 18.04 -6 14.08 -6 10 C-4.02 10 -2.04 10 0 10 C0 6.7 0 3.4 0 0 Z " fill="#273247" transform="translate(528,528)"/>
<path d="M0 0 C11.88 0 23.76 0 36 0 C36 3.3 36 6.6 36 10 C38.31 10 40.62 10 43 10 C43 13.96 43 17.92 43 22 C50.26 22 57.52 22 65 22 C65.09880556 29.61714887 65.17144032 37.23392552 65.21972656 44.8515625 C65.23985375 47.44342546 65.26715816 50.03524296 65.30175781 52.62695312 C65.35022501 56.35037449 65.37295816 60.07319599 65.390625 63.796875 C65.41127014 64.95741394 65.43191528 66.11795288 65.45318604 67.31365967 C65.45363922 68.93488739 65.45363922 68.93488739 65.45410156 70.58886719 C65.46298401 71.53928894 65.47186646 72.48971069 65.48101807 73.46893311 C64.8224972 76.93400121 63.91749879 78.01337624 61 80 C58.11158196 80.39972204 55.60297017 80.55750292 52.71484375 80.53344727 C51.88187775 80.54206284 51.04891174 80.55067841 50.19070435 80.55955505 C47.43931951 80.5822446 44.68895065 80.5754713 41.9375 80.56640625 C40.02465512 80.57164028 38.11181282 80.57791595 36.19897461 80.58518982 C32.19079439 80.59559935 28.18296907 80.59102426 24.17480469 80.57641602 C19.0362223 80.55922161 13.89875737 80.58272855 8.76029968 80.61790562 C4.81059345 80.63985613 0.86115562 80.63844394 -3.08859253 80.6301403 C-4.98323798 80.62931961 -6.8779029 80.63620562 -8.77249146 80.65091133 C-11.42064313 80.66831559 -14.06677376 80.65385084 -16.71484375 80.63110352 C-17.89009109 80.64864182 -17.89009109 80.64864182 -19.08908081 80.66653442 C-22.83606368 80.60098505 -24.64308419 80.31540237 -27.48944092 77.80010986 C-29.14257565 74.7357088 -29.48708418 73.0220677 -29.45410156 69.56713867 C-29.45379944 68.50641647 -29.45349731 67.44569427 -29.45318604 66.35282898 C-29.43254089 65.2193251 -29.41189575 64.08582123 -29.390625 62.91796875 C-29.38496521 61.74865311 -29.37930542 60.57933746 -29.37347412 59.37458801 C-29.35110936 55.64513975 -29.30091 51.9166572 -29.25 48.1875 C-29.22993525 45.65691493 -29.21168445 43.12631478 -29.1953125 40.59570312 C-29.15124378 34.39676414 -29.08221302 28.19854572 -29 22 C-21.74 22 -14.48 22 -7 22 C-7 18.04 -7 14.08 -7 10 C-4.69 10 -2.38 10 0 10 C0 6.7 0 3.4 0 0 Z " fill="#273247" transform="translate(916,528)"/>
<path d="M0 0 C28.05 0 56.1 0 85 0 C85 5 85 5 82.96081543 7.27915955 C79.26972543 9.42443916 76.88643352 9.51323362 72.62695312 9.53344727 C71.90273666 9.54206284 71.1785202 9.55067841 70.43235779 9.55955505 C68.04828737 9.58218159 65.66539549 9.5754835 63.28125 9.56640625 C61.61885225 9.57164305 59.95645748 9.57791973 58.29406738 9.58518982 C54.81390375 9.59558761 51.33414917 9.59104128 47.85400391 9.57641602 C43.39817617 9.55922148 38.94363715 9.58273379 34.48795319 9.61790562 C31.05633021 9.63988379 27.62501549 9.63843736 24.19334412 9.6301403 C22.55072109 9.62932115 20.90807535 9.63617787 19.26551819 9.65091133 C16.96722555 9.66836823 14.67124713 9.65380988 12.37304688 9.63110352 C10.41377258 9.62966087 10.41377258 9.62966087 8.41491699 9.62818909 C4.11527845 8.83725156 2.60311677 7.4601546 0 4 C0 2.68 0 1.36 0 0 Z " fill="#3B475C" transform="translate(204,696)"/>
<path d="M0 0 C27.72 0 55.44 0 84 0 C83.67 2.31 83.34 4.62 83 7 C79.42623281 9.38251146 76.87274933 9.2959197 72.74633789 9.29052734 C71.64341148 9.30060318 71.64341148 9.30060318 70.51820374 9.31088257 C68.08628595 9.32988886 65.6546437 9.33378793 63.22265625 9.3359375 C61.53258653 9.34236318 59.84251793 9.34909136 58.15245056 9.35610962 C54.60917583 9.36808864 51.06599864 9.37178976 47.52270508 9.37060547 C42.98174488 9.37040214 38.44140959 9.39771508 33.90059757 9.43214989 C30.40987778 9.45438308 26.91930928 9.45844413 23.42852592 9.45738602 C21.75436688 9.45974697 20.08020397 9.46859827 18.40611458 9.48405075 C16.06464938 9.50364096 13.72454358 9.49790153 11.38305664 9.48583984 C10.69149475 9.49707886 9.99993286 9.50831787 9.28741455 9.51989746 C6.03824532 9.47735055 4.22768112 9.15890099 1.53855896 7.28213501 C0 5 0 5 0 0 Z " fill="#3B475C" transform="translate(1159,696)"/>
<path d="M0 0 C3.00869887 1.78524456 5.40952957 3.81905914 7 7 C7.58118751 11.76383201 7.45088085 15.14488114 5.1875 19.4375 C2.7935555 22.24183498 1.18335131 23.82597775 -2.5234375 24.37109375 C-10.24999078 24.55102718 -10.24999078 24.55102718 -14.0625 21.75 C-14.701875 20.8425 -15.34125 19.935 -16 19 C-16.433125 18.401875 -16.86625 17.80375 -17.3125 17.1875 C-18.39488257 13.74355546 -18.6712847 10.52593984 -18 7 C-13.84735113 -0.54425452 -7.8836914 -2.15505751 0 0 Z " fill="#364257" transform="translate(312,555)"/>
<path d="M0 0 C3.29110633 2.10070617 4.8333853 3.75007795 7 7 C7.61043233 11.23338782 7.45876307 14.94484493 5.75 18.875 C3.25706479 21.90213561 1.31834684 23.76423007 -2.62109375 24.46875 C-10.28589421 24.55379633 -10.28589421 24.55379633 -14.0625 21.625 C-14.701875 20.75875 -15.34125 19.8925 -16 19 C-16.66 18.34 -17.32 17.68 -18 17 C-18.68810423 12.97277944 -18.90834545 8.78050185 -17.01953125 5.078125 C-12.0759939 -1.06707219 -7.32726984 -1.83181746 0 0 Z " fill="#3D495E" transform="translate(261,555)"/>
<path d="M0 0 C3.00466761 2.44851519 5.063943 4.16340395 5.48828125 8.09375 C5.68954579 15.15919468 5.68954579 15.15919468 3.4375 18.88671875 C-0.87477649 22.82937154 -3.58190947 23.37215222 -9.234375 23.28125 C-13.3014375 22.64340324 -14.98237372 20.86723935 -17.75 17.88671875 C-19.63081662 14.12508551 -19.40251047 9.972532 -18.75 5.88671875 C-16.83514177 2.40629239 -14.5860816 -0.47605293 -10.7578125 -1.8046875 C-6.91754449 -2.39492324 -3.33052087 -2.11874654 0 0 Z " fill="#3D495E" transform="translate(210.75,556.11328125)"/>
<path d="M0 0 C-1.08520508 1.48168945 -1.08520508 1.48168945 -3 3 C-6.00268555 3.34057617 -6.00268555 3.34057617 -9.63671875 3.29296875 C-10.93544922 3.28330078 -12.23417969 3.27363281 -13.57226562 3.26367188 C-14.94401639 3.23860585 -16.31576118 3.21321101 -17.6875 3.1875 C-19.07094924 3.1724502 -20.45441401 3.1587623 -21.83789062 3.14648438 C-25.22565207 3.11107223 -28.61263139 3.06168054 -32 3 C-32.33 2.34 -32.66 1.68 -33 1 C-28.43755286 0.83186513 -23.87503444 0.66574745 -19.3125 0.5 C-18.01892578 0.45230469 -16.72535156 0.40460937 -15.39257812 0.35546875 C-13.52182617 0.28779297 -13.52182617 0.28779297 -11.61328125 0.21875 C-9.89298706 0.1559082 -9.89298706 0.1559082 -8.13793945 0.09179688 C-5.42259389 0.01236251 -2.71620292 -0.01779658 0 0 Z " fill="#F2F3F4" transform="translate(1307,695)"/>
<path d="M0 0 C0.66 0.33 1.32 0.66 2 1 C-1.96 5.29 -5.92 9.58 -10 14 C-10.66 13.34 -11.32 12.68 -12 12 C-8.04 8.04 -4.08 4.08 0 0 Z " fill="#1E2637" transform="translate(173,395)"/>
<path d="M0 0 C0.66 0.33 1.32 0.66 2 1 C-6.261959 10.59453303 -6.261959 10.59453303 -11 14 C-11 11 -11 11 -8.59375 8.30078125 C-7.5700032 7.29697757 -6.5383946 6.30114351 -5.5 5.3125 C-4.97535156 4.80138672 -4.45070312 4.29027344 -3.91015625 3.76367188 C-2.61339096 2.50227292 -1.30753883 1.25022788 0 0 Z " fill="#272D3D" transform="translate(156,411)"/>
<path d="M0 0 C0 0.33 0 0.66 0 1 C-0.62648437 1.02578125 -1.25296875 1.0515625 -1.8984375 1.078125 C-2.71570313 1.13484375 -3.53296875 1.1915625 -4.375 1.25 C-5.18710938 1.29640625 -5.99921875 1.3428125 -6.8359375 1.390625 C-7.90714844 1.69226563 -7.90714844 1.69226563 -9 2 C-10.12607108 3.96044675 -10.12607108 3.96044675 -11 6 C-11.99 6.33 -12.98 6.66 -14 7 C-12.39468493 3.41891254 -10.87922099 0.7516884 -7.125 -0.75 C-4.55759 -1.05204823 -2.49503633 -0.62375908 0 0 Z " fill="#485669" transform="translate(207,555)"/>
<path d="M0 0 C2.97851562 0.53710938 2.97851562 0.53710938 5.95703125 1.07421875 C5.95703125 1.73421875 5.95703125 2.39421875 5.95703125 3.07421875 C2.32703125 3.07421875 -1.30296875 3.07421875 -5.04296875 3.07421875 C-2.04296875 0.07421875 -2.04296875 0.07421875 0 0 Z " fill="#3D4B5F" transform="translate(306.04296875,575.92578125)"/>
<path d="M0 0 C3.3 0.99 6.6 1.98 10 3 C10 3.66 10 4.32 10 5 C6.6875 4.75 6.6875 4.75 3 4 C2.01 2.68 1.02 1.36 0 0 Z " fill="#262B3C" transform="translate(195,717)"/>
<path d="M0 0 C0.33 0 0.66 0 1 0 C1.33 2.64 1.66 5.28 2 8 C2.99 7.67 3.98 7.34 5 7 C5.33 7.99 5.66 8.98 6 10 C4.02 10 2.04 10 0 10 C0 6.7 0 3.4 0 0 Z " fill="#BFCBD4" transform="translate(952,528)"/>
<path d="M0 0 C0.33 0.66 0.66 1.32 1 2 C-0.65 3.98 -2.3 5.96 -4 8 C-4.66 7.34 -5.32 6.68 -6 6 C-4.02 4.02 -2.04 2.04 0 0 Z " fill="#232839" transform="translate(130,436)"/>
</svg>
